<?xml version="1.0" encoding="UTF-8"?>
<svg version="1.1" viewBox="0 0 1600 1600" width="auto" height="auto" xmlns="http://www.w3.org/2000/svg">
<path transform="translate(212 270)" d="m0 0c2.28-0.00231 4.56-0.00549 6.85-0.00945 6.22-0.00829 12.4-0.00425 18.6 0.00197 6.03 0.00408 12.1-0.00128 18.1-0.00629 13.1-0.0105 26.2-0.00964 39.2-0.00384 11.4 0.00504 22.9 0.00634 34.3 0.00395 0.761-1.53e-4 1.52-3.06e-4 2.31-4.63e-4 3.09-6.23e-4 6.18-0.00126 9.27-0.00192 28.9-0.00611 57.9-5.86e-4 86.8 0.0102 25.7 0.0095 51.4 0.00863 77.1-9.22e-4 28.9-0.0107 57.8-0.015 86.7-0.00878 3.08 6.41e-4 6.16 0.00127 9.24 0.00189 0.758 1.58e-4 1.52 3.16e-4 2.3 4.79e-4 11.4 0.00227 22.9-3.81e-4 34.3-0.00544 13-0.00572 26-0.00429 39 0.00656 6.63 0.00535 13.3 0.00731 19.9 7.02e-4 6.07-0.00596 12.1-0.00268 18.2 0.00796 2.2 0.00223 4.39 0.0011 6.59-0.00375 22.9-0.0468 42.3 2.98 59.6 19.5 12.4 13 19.6 29.7 19.2 47.8-1.02 19.3-8.59 36.8-23 49.9-13.1 10.3-27.7 15.1-44.2 15.6-1.43 0.0565-1.43 0.0565-2.9 0.114-10.3 0.373-20.5 0.401-30.8 0.382-2.11-2.81e-4 -4.22-1.15e-4 -6.34 4.51e-4 -5.74 2.92e-4 -11.5-0.00559-17.2-0.0126-6.21-0.00643-12.4-0.00695-18.6-0.00818-10.7-0.00288-21.5-0.00928-32.2-0.0181-15.6-0.0127-31.1-0.0187-46.7-0.0229-7.27-0.00201-14.5-0.00433-21.8-0.00674-1.09-3.62e-4 -1.09-3.62e-4 -2.2-7.3e-4 -17.3-0.0058-34.5-0.0148-51.8-0.0242-1.13-6.2e-4 -1.13-6.2e-4 -2.29-0.00125-11.5-0.0063-23-0.0128-34.4-0.0193-12.2-0.00693-24.5-0.0138-36.7-0.0205-1.13-6.22e-4 -1.13-6.22e-4 -2.29-0.00126-17.2-0.00946-34.5-0.018-51.7-0.0237-0.726-2.41e-4 -1.45-4.82e-4 -2.2-7.3e-4 -7.25-0.00239-14.5-0.00461-21.8-0.00661-15.5-0.0043-31.1-0.0113-46.6-0.024-11.3-0.00922-22.7-0.0149-34-0.0171-6.13-0.00134-12.3-0.00431-18.4-0.0118-5.62-0.00681-11.2-0.00887-16.9-0.00736-2.02-2.69e-4 -4.04-0.0022-6.06-0.00609-10.1-0.0185-20.2 0.1-30.3 0.556-0.864 0.0377-1.73 0.0755-2.62 0.114-16.8 0.847-31.9 7.56-43.9 19.4-13.7 15.7-18.5 32.8-18.4 53.3-0.00344 1.63-0.00819 3.27-0.0141 4.9-0.0125 4.48-0.00637 8.95 0.00283 13.4 0.00672 4.87-0.00396 9.75-0.0124 14.6-0.0124 8.54-0.0136 17.1-0.00745 25.6 0.00909 12.7 0.00106 25.4-0.0103 38.1-0.0197 22.7-0.022 45.4-0.0168 68.1 0.00456 19.9 0.00396 39.7-0.00184 59.6-7.57e-4 2.66-0.00151 5.33-0.00227 7.99-0.00114 4.01-0.00229 8.02-0.00346 12-0.0108 37.3-0.0155 74.6-0.00753 112 1.48e-4 0.703 2.97e-4 1.41 4.49e-4 2.13 0.00166 7.84 0.00341 15.7 0.00519 23.5 1.61e-4 0.708 3.22e-4 1.42 4.88e-4 2.14 9.77e-4 4.29 9.77e-4 4.29 0.00196 8.59 0.0104 45.3 0.00263 90.5-0.021 136-0.00594 11.4-0.0118 22.8-0.0174 34.2-3.44e-4 0.702-6.88e-4 1.4-0.00104 2.13-0.0105 21.7-0.0161 43.3-0.0165 65-1.28e-5 0.68-2.56e-5 1.36-3.87e-5 2.06-2.28e-4 14.9 7.78e-4 29.9 0.00291 44.8 8.49e-4 6.01 0.00159 12 0.00232 18 1.7e-4 1.31 3.4e-4 2.63 5.15e-4 3.98 0.0023 19.8-0.00568 39.7-0.0188 59.5-0.0149 22.6-0.0158 45.1 0.00207 67.7 0.00957 12.6 0.00812 25.3-0.00923 37.9-0.0105 8.44-0.0064 16.9 0.00948 25.3 0.00864 4.8 0.011 9.61-0.00427 14.4-0.0138 4.38-0.00895 8.76 0.0103 13.1 0.00371 1.57 8.52e-4 3.13-0.00971 4.7-0.122 19.4 4.68 35.6 17.5 50.5 0.509 0.605 1.02 1.21 1.54 1.83 7.78 8.51 18.5 14 29.5 17.2 0.723 0.213 1.45 0.425 2.19 0.645 11.6 2.97 24.1 2.5 36 2.48 1.48 0.00105 2.97 0.00253 4.45 0.0044 4.06 0.00387 8.11 0.00158 12.2-0.00178 4.42-0.00255 8.84 7.28e-4 13.3 0.00324 7.74 0.00361 15.5 0.00351 23.2 9.53e-4 11.5-0.00379 23-0.00185 34.6 0.00121 20.6 0.00527 41.2 0.00481 61.8 0.00192 18-0.00252 36.1-0.00317 54.1-0.00198 1.2 7.64e-5 2.4 1.53e-4 3.63 2.31e-4 4.87 3.11e-4 9.73 6.3e-4 14.6 9.6e-4 45.7 0.00306 91.4 2.85e-4 137-0.0051 40.5-0.00473 80.9-0.00433 121 4.61e-4 45.5 0.00538 91 0.00746 137 0.00439 4.87-3.21e-4 9.75-6.34e-4 14.6-9.43e-4 1.2-7.91e-5 2.4-1.58e-4 3.64-2.4e-4 18-0.00113 36 1.78e-4 54 0.00272 20.5 0.00288 41.1 0.00209 61.6-0.00328 10.4-0.00265 20.9-0.0038 31.3-3.51e-4 24.2 0.00726 48.3-0.0146 72.5-0.122 2.43-0.0106 4.85-0.0203 7.28-0.03 9.14-0.0379 18.3-0.1 27.4-0.198 2.72-0.0285 5.43-0.0472 8.15-0.0609 23.7-0.131 45.3-2.23 62.9-19.8 16.9-18.2 19.2-37.5 19.1-61.2 0.00329-2.25 0.00791-4.51 0.0137-6.76 0.0122-6.16 0.00587-12.3-0.0035-18.5-0.00611-5.97 0.00192-11.9 0.00969-17.9 0.0155-12.2 0.0175-24.4 0.0122-36.6-7e-3 -16.7 0.00567-33.4 0.0235-50.1 0.00829-7.78 0.0156-15.6 0.0227-23.4 0.00107-1.17 0.00107-1.17 0.00215-2.36 0.0167-18.5 0.024-37.1 0.0297-55.6 2.54e-4 -0.81 5.08e-4 -1.62 7.69e-4 -2.45 0.00385-12.3 0.00721-24.6 0.0105-37 0.00347-13.1 0.00711-26.3 0.0112-39.4 2.5e-4 -0.809 5.01e-4 -1.62 7.58e-4 -2.45 0.00577-18.5 0.0142-37 0.0311-55.5 7.08e-4 -0.778 0.00142-1.56 0.00215-2.36 0.00713-7.77 0.0147-15.5 0.023-23.3 0.0177-16.7 0.0273-33.3 0.0201-50-0.0051-12.1 7.89e-5 -24.3 0.0159-36.4 0.00822-6.58 0.0112-13.2 0.00118-19.7-0.0091-6.03-0.00432-12.1 0.0112-18.1 0.00318-2.17 0.00134-4.35-0.00617-6.52-0.0795-24.8 3.72-44.4 21.1-63.1 12.8-12.8 29.5-18.1 47.3-18.3 16.7 0.155 30.5 6.3 43 17 0.739 0.626 1.48 1.25 2.24 1.9 12.2 11.2 19.2 27.9 19.9 44.3 0.0374 2.43 0.0432 4.86 0.0373 7.28 0.00263 1.39 0.00263 1.39 0.00531 2.81 0.00465 3.11 0.0022 6.22-2.34e-4 9.33 0.00187 2.25 0.00417 4.51 0.00687 6.76 0.00612 6.19 0.00598 12.4 0.00481 18.6-1.83e-4 5.99 0.00431 12 0.00861 18 0.00967 13.8 0.0125 27.5 0.0131 41.3 4.6e-4 10.6 0.00252 21.3 0.0057 31.9 8.98e-4 3.06 0.00179 6.13 0.00267 9.19 2.21e-4 0.762 4.42e-4 1.52 6.7e-4 2.31 0.00615 21.4 0.0101 42.9 0.00966 64.3-1.56e-5 0.808-3.12e-5 1.62-4.72e-5 2.45-8.31e-5 4.09-1.82e-4 8.19-2.85e-4 12.3-2.99e-5 1.22-2.99e-5 1.22-6.04e-5 2.46-4.04e-5 1.64-8.22e-5 3.29-1.25e-4 4.93-6.12e-4 25.6 0.00688 51.1 0.0206 76.7 0.0154 28.7 0.024 57.5 0.023 86.2-7.46e-5 3.07-1.23e-4 6.14-1.54e-4 9.2-1.17e-5 0.755-2.33e-5 1.51-3.53e-5 2.29-3.07e-5 12.1 0.00634 24.3 0.015 36.4 0.0085 12.2 0.00945 24.4 0.00289 36.6-0.00336 6.6-0.00335 13.2 0.00535 19.8 0.0079 6.06 0.0064 12.1-0.00228 18.2-0.00153 2.18 2.54e-4 4.36 0.00586 6.54 0.0896 37.3-6.11 72.9-24.3 106-0.612 1.16-1.22 2.32-1.86 3.52-12.9 23.7-31.7 44.3-53.1 60.5-0.861 0.652-0.861 0.652-1.74 1.32-8.97 6.75-18.3 12.5-28.3 17.7-0.653 0.343-1.31 0.685-1.98 1.04-12.5 6.44-25.6 11-39 15-1.05 0.364-1.05 0.364-2.12 0.735-8.62 2.74-17 2.69-25.9 2.66-1.73 0.00526-3.45 0.0118-5.18 0.0196-4.74 0.0175-9.49 0.0164-14.2 0.0122-5.16-0.0013-10.3 0.0147-15.5 0.0284-10.2 0.0245-20.5 0.0328-30.7 0.0362-12.3 0.00479-24.5 0.0268-36.8 0.0491-28.9 0.0517-57.9 0.0744-86.8 0.0923-14.7 0.00915-29.5 0.022-44.2 0.0354-47.3 0.043-94.6 0.0796-142 0.0937-3.01 9e-4 -6.03 0.00182-9.04 0.00274-2.27 6.92e-4 -4.53 0.00138-6.8 0.00207-6.82 0.00207-13.6 0.00416-20.5 0.00628-1.52 4.7e-4 -3.04 9.37e-4 -4.56 0.0014-48.7 0.0149-97.5 0.0674-146 0.147-35 0.0569-70.1 0.109-105 0.125-0.721 3.34e-4 -1.44 6.68e-4 -2.19 0.00101-15.8 0.00723-31.7 0.0116-47.5 0.0133-5.67 6.41e-4 -11.3 0.00153-17 0.00255-1.41 2.54e-4 -2.82 4.98e-4 -4.23 7.3e-4 -22.4 0.00385-44.8 0.0379-67.2 0.0877-23.2 0.0514-46.5 0.0663-69.7 0.0399-13.4-0.0141-26.8-7.2e-4 -40.1 0.053-8.96 0.0332-17.9 0.0294-26.9-0.00327-5.09-0.0176-10.2-0.0202-15.3 0.0226-24.6 0.194-45.3-2.14-68.2-11.3-1.44-0.568-1.44-0.568-2.91-1.15-5.16-2.06-10.1-4.31-15.1-6.85-0.722-0.365-1.44-0.731-2.19-1.11-19.6-10-36-23.1-51.5-38.6-1.35-1.35-2.72-2.68-4.12-3.98-10.7-10-18.8-22.8-26.2-35.3-0.508-0.79-1.02-1.58-1.54-2.39-14.1-22.1-20-48.1-24.5-73.6-0.172-0.901-0.344-1.8-0.521-2.73-0.506-3.45-0.607-6.72-0.61-10.2-0.00304-1.02-0.00304-1.02-0.00613-2.06-0.00557-2.28-0.00405-4.55-0.00257-6.83-0.00256-1.65-0.00555-3.31-0.00894-4.96-0.00807-4.56-0.0099-9.13-0.0107-13.7-0.00197-4.96-0.00964-9.92-0.0166-14.9-0.0128-9.84-0.0202-19.7-0.0259-29.5-0.00706-11.8-0.0198-23.6-0.0325-35.4-0.0326-30.5-0.0525-61.1-0.0705-91.6-0.00398-6.74-0.00816-13.5-0.0124-20.2-0.0312-50.2-0.0582-100-0.0749-151-0.00389-11.6-0.00791-23.3-0.012-34.9-5.11e-4 -1.46-0.00102-2.92-0.00153-4.38-0.0163-46.8-0.0532-93.7-0.104-141-0.0366-33.7-0.0703-67.3-0.0825-101-2.54e-4 -0.693-5.08e-4 -1.39-7.7e-4 -2.1-0.00552-15.2-0.00936-30.4-0.0116-45.7-9.38e-4 -6.13-0.00209-12.3-0.00331-18.4-1.28e-4 -0.67-2.55e-4 -1.34-3.86e-4 -2.03-0.00433-22.2-0.029-44.4-0.0624-66.6-0.0321-21.7-0.042-43.3-0.0296-65 0.00672-12.9-0.00309-25.7-0.0371-38.6-0.0211-8.61-0.0201-17.2-0.00167-25.8 0.00985-4.89 0.0107-9.78-0.0157-14.7-0.299-59.2 17.1-113 58.8-156 0.684-0.724 1.37-1.45 2.07-2.2 40.3-41.7 95.8-57.2 152-57.1z" fill="#000002"/>
<path transform="translate(1153 216)" d="m0 0c2.54 1.08 4.05 2.59 6 4.54 1.23 1.21 1.23 1.21 2.47 2.45 0.892 0.897 1.78 1.79 2.7 2.72 0.96 0.956 1.92 1.91 2.88 2.86 2.64 2.63 5.28 5.27 7.91 7.91 2.84 2.84 5.69 5.68 8.54 8.51 5.58 5.56 11.1 11.1 16.7 16.7 4.52 4.52 9.05 9.05 13.6 13.6 1.3 1.3 2.61 2.6 3.91 3.9 0.648 0.647 1.3 1.29 1.96 1.96 12.3 12.2 24.5 24.5 36.8 36.8 11.2 11.2 22.5 22.4 33.7 33.6 11.5 11.5 23.1 23 34.6 34.5 6.47 6.47 12.9 12.9 19.4 19.4 5.52 5.5 11 11 16.5 16.5 2.81 2.82 5.62 5.63 8.44 8.43 2.58 2.56 5.15 5.13 7.71 7.71 1.37 1.38 2.76 2.75 4.15 4.12 0.804 0.815 1.61 1.63 2.44 2.47 0.703 0.703 1.41 1.41 2.13 2.13 1.36 1.98 1.36 1.98 1.26 4.18-0.906 1.81-0.906 1.81-3.91 2.81-0.697 1.32-1.36 2.65-2 4-1.14 1.32-2.34 2.59-3.58 3.83-0.749 0.754-1.5 1.51-2.27 2.29-0.828 0.824-1.66 1.65-2.51 2.5-0.879 0.882-1.76 1.76-2.66 2.67-2.45 2.46-4.91 4.92-7.37 7.37-2.67 2.67-5.33 5.34-8 8.01-4.67 4.68-9.35 9.37-14 14-6.96 6.96-13.9 13.9-20.9 20.9-13.1 13.2-26.3 26.3-39.4 39.5-10.2 10.2-20.3 20.3-30.5 30.5-2.92 2.92-5.84 5.84-8.76 8.77-0.726 0.726-1.45 1.45-2.2 2.2-20.4 20.4-40.9 40.9-61.3 61.3-0.771 0.771-1.54 1.54-2.34 2.34-3.91 3.91-7.81 7.81-11.7 11.7-0.776 0.776-1.55 1.55-2.35 2.35-1.57 1.57-3.14 3.14-4.71 4.71-24.4 24.4-48.8 48.8-73.2 73.3-27.4 27.4-54.8 54.8-82.2 82.3-2.92 2.92-5.85 5.85-8.77 8.77-0.72 0.72-1.44 1.44-2.18 2.18-11.6 11.6-23.2 23.2-34.7 34.8-11.6 11.7-23.3 23.3-34.9 34.9-6.92 6.92-13.8 13.8-20.7 20.8-4.62 4.63-9.24 9.25-13.9 13.9-2.64 2.63-5.27 5.26-7.9 7.9-2.83 2.85-5.68 5.68-8.52 8.51-0.809 0.819-1.62 1.64-2.45 2.48-8.12 8.02-16.2 12.8-27.4 15.1-1.09 0.237-2.18 0.475-3.3 0.719-4.08 0.875-8.17 1.71-12.3 2.54-0.837 0.17-1.67 0.34-2.54 0.516-14.9 3.03-29.9 5.97-44.8 8.9-11.1 2.18-22.2 4.38-33.3 6.57-1.25 0.247-2.51 0.495-3.8 0.75-18.5 3.66-37.1 7.37-55.6 11.1-1.73 0.35-1.73 0.35-3.49 0.706-11 2.23-22.1 4.47-33.1 6.72-4.02 0.817-8.04 1.63-12.1 2.45-2.74 0.555-5.47 1.11-8.2 1.67-1.64 0.334-3.29 0.667-4.93 1-0.726 0.149-1.45 0.298-2.2 0.451-12.2 2.46-24.7 4.64-35.9-1.85-7.44-5.02-12.7-12.3-15.4-20.9-2.07-11.6 1.89-24.4 4.17-35.7 0.39-1.96 0.78-3.93 1.17-5.89 1.05-5.31 2.12-10.6 3.18-15.9 0.893-4.46 1.78-8.92 2.67-13.4 3.07-15.4 6.15-30.8 9.25-46.2 0.24-1.2 0.481-2.39 0.728-3.63 6.2-30.9 12.4-61.8 18.7-92.6 0.992-4.88 1.97-9.76 2.94-14.6 0.409-2.07 0.821-4.13 1.23-6.2 0.475-2.38 0.944-4.75 1.4-7.13 3.24-16.1 10.6-25.6 22-37.1 1.34-1.34 1.34-1.34 2.7-2.71 2.46-2.47 4.93-4.94 7.4-7.41 2.69-2.69 5.38-5.38 8.06-8.08 4.7-4.72 9.41-9.43 14.1-14.1 7-7 14-14 21-21 14-14 27.9-27.9 41.9-41.9 0.723-0.723 1.45-1.45 2.19-2.19 0.724-0.724 1.45-1.45 2.19-2.19 8.02-8.03 16-16.1 24.1-24.1 24.2-24.2 48.4-48.5 72.7-72.7 0.775-0.775 1.55-1.55 2.35-2.35 3.14-3.14 6.28-6.28 9.42-9.42 2.36-2.36 4.73-4.73 7.09-7.09 0.781-0.781 1.56-1.56 2.37-2.37 24.6-24.6 49.1-49.1 73.7-73.7 27.6-27.6 55.1-55.2 82.7-82.8 2.94-2.94 5.88-5.88 8.81-8.82 0.723-0.724 1.45-1.45 2.19-2.19 11.7-11.7 23.3-23.3 35-35 11.7-11.7 23.4-23.4 35.1-35.1 6.97-6.96 13.9-13.9 20.9-20.9 4.64-4.65 9.28-9.29 13.9-13.9 2.66-2.65 5.31-5.3 7.95-7.96 2.84-2.86 5.69-5.7 8.55-8.53 0.828-0.841 1.66-1.68 2.51-2.55 0.758-0.747 1.52-1.49 2.3-2.26 0.652-0.652 1.3-1.3 1.97-1.98 1.87-1.25 1.87-1.25 3.99-1.05z" fill="#000002"/>
<path transform="translate(1490,13)" d="m0 0c0.682 0.251 1.36 0.502 2.07 0.761 15.2 5.69 29.1 13.2 41.9 23.2 0.855 0.651 1.71 1.3 2.59 1.97 17.7 13.9 31.5 30.5 42.4 50 0.348 0.622 0.696 1.24 1.05 1.89 9.13 16.5 14.5 34.6 17.9 53.1 0.177 0.911 0.353 1.82 0.535 2.76 7.15 39.2-4.86 83.5-27 116-5.69 7.93-11.7 15.6-18.7 22.3-1.77 1.77-3.39 3.6-5.02 5.51-3.62 4.16-7.42 8.08-11.3 12-0.72 0.723-1.44 1.45-2.18 2.19-2.35 2.36-4.71 4.72-7.06 7.08-1.64 1.65-3.29 3.3-4.93 4.94-3.43 3.44-6.87 6.87-10.3 10.3-4.41 4.41-8.82 8.83-13.2 13.2-3.39 3.4-6.78 6.79-10.2 10.2-1.63 1.63-3.25 3.26-4.88 4.89-2.26 2.27-4.53 4.53-6.79 6.79-0.674 0.679-1.35 1.36-2.04 2.06-0.615 0.611-1.23 1.22-1.86 1.85-0.535 0.535-1.07 1.07-1.62 1.62-1.38 1.13-1.38 1.13-3.38 1.13-0.33 0.99-0.66 1.98-1 3-1.63 1.37-3.3 2.71-5 4-1.02 0.982-2.03 1.97-3 3-2.04-1.62-4.04-3.29-6-5v-2c-0.598-0.268-1.2-0.536-1.81-0.812-2.19-1.19-3.6-2.28-5.19-4.19v-2c-0.577-0.248-1.15-0.495-1.75-0.75-2.58-1.43-4.31-3.03-6.25-5.25v-2c-0.99-0.33-1.98-0.66-3-1v-2c-0.99-0.33-1.98-0.66-3-1v-2c-1.32-0.66-2.64-1.32-4-2v-2c-0.99-0.33-1.98-0.66-3-1v-2c-0.812-0.325-0.812-0.325-1.64-0.656-3.18-1.81-5.57-4.26-8.11-6.84-0.507-0.499-1.01-0.998-1.54-1.51-3.71-3.73-3.71-3.73-3.71-5.99-0.598-0.268-1.2-0.536-1.81-0.812-2.19-1.19-3.6-2.28-5.19-4.19v-2c-0.589-0.264-1.18-0.529-1.78-0.801-2.3-1.24-3.82-2.55-5.67-4.39-0.619-0.616-1.24-1.23-1.88-1.87-0.634-0.642-1.27-1.28-1.92-1.95-0.65-0.642-1.3-1.28-1.97-1.95-0.614-0.616-1.23-1.23-1.86-1.87-0.561-0.563-1.12-1.13-1.7-1.71-1.22-1.48-1.22-1.48-1.22-3.48-0.845-0.358-0.845-0.358-1.71-0.724-2.79-1.55-4.71-3.43-6.97-5.69-0.921-0.914-1.84-1.83-2.79-2.77-0.996-0.999-1.99-2-2.99-3-1.03-1.02-2.05-2.05-3.08-3.07-2.14-2.14-4.29-4.29-6.43-6.44-2.75-2.76-5.5-5.51-8.26-8.25-2.12-2.11-4.23-4.23-6.34-6.34-1.01-1.02-2.03-2.03-3.05-3.04-1.42-1.41-2.83-2.83-4.24-4.25-0.805-0.807-1.61-1.61-2.44-2.44-1.72-1.97-1.72-1.97-1.72-3.97-0.566-0.241-1.13-0.483-1.72-0.731-2.75-1.53-4.61-3.35-6.83-5.57-0.906-0.903-1.81-1.81-2.74-2.74-0.996-1-1.99-2.01-2.99-3.01-1.05-1.05-2.11-2.11-3.16-3.16-2.86-2.86-5.72-5.73-8.57-8.6-2.98-3-5.97-5.99-8.96-8.98-5.66-5.67-11.3-11.3-17-17-6.44-6.46-12.9-12.9-19.3-19.4-13.3-13.3-26.5-26.6-39.7-39.8 1.43-3.26 3.17-5.42 5.68-7.93 0.765-0.769 1.53-1.54 2.32-2.33 0.841-0.835 1.68-1.67 2.55-2.53 0.885-0.887 1.77-1.77 2.68-2.69 2.43-2.43 4.86-4.85 7.29-7.28 2.55-2.54 5.1-5.09 7.64-7.64 4.28-4.28 8.57-8.56 12.9-12.8 4.94-4.93 9.88-9.86 14.8-14.8 5.27-5.27 10.5-10.5 15.8-15.8 1.51-1.51 3.02-3.02 4.53-4.53 2.83-2.83 5.67-5.65 8.5-8.48 0.828-0.829 1.66-1.66 2.51-2.51 24.3-24.2 52.4-40.5 85.8-48.7 0.694-0.179 1.39-0.359 2.1-0.543 28.8-7.21 63.3-3.69 90.9 6.54z" fill="#000002"/>
</svg>
