<svg width="134" height="127" viewBox="0 0 134 127" fill="none" xmlns="http://www.w3.org/2000/svg">
<path d="M67.0964 45.3978V2" stroke="#E3E7F4" stroke-width="4"/>
<path d="M35.2717 43.9512C13.6967 59.0537 4.6911 49.3526 2.39664 41.3272C2.08785 40.2471 2.39015 39.1043 3.07506 38.2139L30.0312 3.17087C30.5991 2.43261 31.4777 2 32.4091 2H48.291M35.2717 43.9512C39.5335 51.0543 51.6078 60.9475 66.2885 44.8603C66.7096 44.3989 67.4534 44.3983 67.8656 44.8678C73.9975 51.8533 87.6702 60.2812 99.7148 44.8163C100.07 44.3598 100.742 44.2671 101.193 44.6296C110.382 52.0149 127.858 60.4937 131.892 41.2579C132.111 40.2165 131.841 39.1285 131.213 38.2694L105.607 3.22995C105.042 2.45696 104.142 2 103.185 2H48.291M35.2717 43.9512L48.291 2M122.067 52.8698V121.961C122.067 123.617 120.724 124.961 119.067 124.961H15.1262C13.4693 124.961 12.1262 123.617 12.1262 121.961V51.4541" stroke="#E3E7F4" stroke-width="4"/>
<path d="M100.369 45.3978L87.3493 2" stroke="#E3E7F4" stroke-width="4"/>
<mask id="path-4-inside-1_150_189" fill="white">
<path fill-rule="evenodd" clip-rule="evenodd" d="M90.3435 103.774C90.3251 103.755 90.2941 103.761 90.2834 103.784C90.2724 103.809 90.2401 103.814 90.2222 103.794L85.2977 98.3771C85.1082 98.1686 84.8395 98.0498 84.5578 98.0498L68.1147 98.0498C67.5624 98.0498 67.1147 97.6021 67.1147 97.0498L67.1147 78.7968C67.1147 78.2445 67.5624 77.7968 68.1147 77.7968L84.5576 77.7968C84.8393 77.7968 85.108 77.678 85.2975 77.4695L90.2222 72.0523C90.2401 72.0326 90.2724 72.0376 90.2834 72.0618C90.2941 72.0854 90.3251 72.091 90.3435 72.0727C92.1751 70.2465 94.7022 69.1176 97.493 69.1176C103.086 69.1176 107.619 73.6512 107.619 79.2437C107.619 82.3318 106.237 85.0971 104.057 86.9544C103.484 87.443 103.484 88.4033 104.057 88.8919C106.237 90.7492 107.619 93.5144 107.619 96.6025C107.619 102.195 103.085 106.729 97.4929 106.729C94.7022 106.729 92.1751 105.6 90.3435 103.774ZM49.6712 98.0494C49.3895 98.0494 49.1208 98.1682 48.9313 98.3767L44.0066 103.794C43.9888 103.813 43.9568 103.808 43.9458 103.784C43.9351 103.761 43.9043 103.755 43.886 103.773C42.0543 105.6 39.5271 106.729 36.7361 106.729C31.1436 106.729 26.61 102.195 26.61 96.6028C26.61 93.5147 27.9923 90.7494 30.172 88.8921C30.7453 88.4035 30.7453 87.4432 30.1719 86.9546C27.9922 85.0973 26.6099 82.332 26.6099 79.2438C26.6099 73.6513 31.1435 69.1177 36.736 69.1177C39.5267 69.1177 42.0536 70.2465 43.8852 72.0725C43.9037 72.0909 43.9348 72.0853 43.9456 72.0616C43.9567 72.0373 43.989 72.0322 44.007 72.052L48.9316 77.4691C49.1211 77.6776 49.3898 77.7964 49.6716 77.7964H66.1143C66.6666 77.7964 67.1143 78.2441 67.1143 78.7964V97.0494C67.1143 97.6017 66.6666 98.0494 66.1143 98.0494H49.6712Z"/>
</mask>
<path d="M44.007 72.052L41.0472 74.7427L44.007 72.052ZM43.8852 72.0725L41.0611 74.9053L43.8852 72.0725ZM30.1719 86.9546L32.7663 83.91L30.1719 86.9546ZM43.886 103.773L46.7103 106.606L43.886 103.773ZM104.057 86.9544L101.463 83.9099L104.057 86.9544ZM104.057 88.8919L106.652 85.8473L104.057 88.8919ZM90.3435 72.0727L93.1677 74.9053L90.3435 72.0727ZM90.2222 72.0523L93.182 74.7429L90.2222 72.0523ZM84.5576 77.7968L84.5576 73.7968L84.5576 77.7968ZM85.2975 77.4695L88.2573 80.1602L85.2975 77.4695ZM67.1147 78.7968L71.1147 78.7968L67.1147 78.7968ZM68.1147 77.7968V81.7968V77.7968ZM48.9313 98.3767L51.891 101.067L48.9313 98.3767ZM68.1147 98.0498V94.0498V98.0498ZM67.1147 97.0498L63.1147 97.0498L67.1147 97.0498ZM44.0066 103.794L41.0469 101.103L44.0066 103.794ZM85.2977 98.3771L88.2575 95.6864L85.2977 98.3771ZM84.5578 98.0498V94.0498V98.0498ZM90.3435 103.774L93.1677 100.941L90.3435 103.774ZM48.9316 77.4691L45.9719 80.1598L48.9316 77.4691ZM90.2222 103.794L87.2625 106.485L90.2222 103.794ZM82.338 101.068L87.2625 106.485L93.182 101.103L88.2575 95.6864L82.338 101.068ZM68.1147 102.05H84.5578L84.5578 94.0498L68.1147 94.0498V102.05ZM63.1147 78.7968L63.1147 97.0498L71.1147 97.0498L71.1147 78.7968L63.1147 78.7968ZM84.5576 73.7968L68.1147 73.7968V81.7968L84.5576 81.7968L84.5576 73.7968ZM87.2625 69.3616L82.3377 74.7788L88.2573 80.1602L93.182 74.7429L87.2625 69.3616ZM97.493 65.1176C93.601 65.1176 90.0701 66.6969 87.5193 69.2401L93.1677 74.9053C94.2801 73.7962 95.8035 73.1176 97.493 73.1176V65.1176ZM111.619 79.2437C111.619 71.4421 105.295 65.1176 97.493 65.1176V73.1176C100.876 73.1176 103.619 75.8603 103.619 79.2437H111.619ZM106.652 89.999C109.685 87.4141 111.619 83.5527 111.619 79.2437H103.619C103.619 81.1109 102.789 82.78 101.463 83.9099L106.652 89.999ZM111.619 96.6025C111.619 92.2936 109.685 88.4322 106.652 85.8473L101.463 91.9364C102.789 93.0662 103.619 94.7353 103.619 96.6025H111.619ZM97.4929 110.729C105.295 110.729 111.619 104.404 111.619 96.6025H103.619C103.619 99.9859 100.876 102.729 97.4929 102.729V110.729ZM87.5193 106.606C90.0701 109.149 93.6009 110.729 97.4929 110.729V102.729C95.8034 102.729 94.2801 102.05 93.1677 100.941L87.5193 106.606ZM46.9664 106.484L51.891 101.067L45.9715 95.686L41.0469 101.103L46.9664 106.484ZM41.0616 100.941C39.9492 102.05 38.4258 102.729 36.7361 102.729V110.729C40.6284 110.729 44.1595 109.149 46.7103 106.606L41.0616 100.941ZM36.7361 102.729C33.3527 102.729 30.61 99.9862 30.61 96.6028H22.61C22.61 104.404 28.9345 110.729 36.7361 110.729V102.729ZM30.61 96.6028C30.61 94.7356 31.4404 93.0665 32.7663 91.9366L27.5776 85.8475C24.5442 88.4324 22.61 92.2938 22.61 96.6028H30.61ZM22.6099 79.2438C22.6099 83.5529 24.5441 87.4143 27.5776 89.9992L32.7663 83.91C31.4404 82.7802 30.6099 81.1111 30.6099 79.2438H22.6099ZM36.736 65.1177C28.9344 65.1177 22.6099 71.4422 22.6099 79.2438H30.6099C30.6099 75.8605 33.3526 73.1177 36.736 73.1177V65.1177ZM46.7093 69.2397C44.1585 66.6968 40.6279 65.1177 36.736 65.1177V73.1177C38.4255 73.1177 39.9487 73.7963 41.0611 74.9053L46.7093 69.2397ZM51.8914 74.7784L46.9667 69.3613L41.0472 74.7427L45.9719 80.1598L51.8914 74.7784ZM66.1143 73.7964H49.6716V81.7964H66.1143V73.7964ZM71.1143 97.0494V78.7964H63.1143V97.0494H71.1143ZM49.6712 102.049H66.1143V94.0494H49.6712V102.049ZM47.5871 73.7168C46.4088 76.309 42.9626 76.8496 41.0472 74.7427L46.9667 69.3613C45.0154 67.2148 41.5045 67.7655 40.3041 70.4064L47.5871 73.7168ZM41.0611 74.9053C43.044 76.882 46.4149 76.2956 47.5871 73.7168L40.3041 70.4064C41.4547 67.875 44.7634 67.2998 46.7093 69.2397L41.0611 74.9053ZM32.7663 91.9366C35.2138 89.851 35.2138 85.9956 32.7663 83.91L27.5776 89.9992C26.8603 89.388 26.6019 88.5771 26.6019 87.9234C26.6019 87.2696 26.8603 86.4588 27.5776 85.8475L32.7663 91.9366ZM47.5873 102.129C46.4152 99.5505 43.0443 98.964 41.0616 100.941L46.7103 106.606C44.7642 108.546 41.455 107.971 40.3043 105.439L47.5873 102.129ZM101.463 83.9099C99.0153 85.9954 99.0153 89.8508 101.463 91.9364L106.652 85.8473C107.369 86.4586 107.627 87.2694 107.627 87.9232C107.627 88.5769 107.369 89.3877 106.652 89.999L101.463 83.9099ZM86.6419 73.7171C87.814 76.2957 91.1849 76.8822 93.1677 74.9053L87.5193 69.2401C89.4653 67.2998 92.7742 67.8752 93.9248 70.4066L86.6419 73.7171ZM93.182 74.7429C91.2665 76.85 87.8203 76.3094 86.6419 73.7171L93.9248 70.4066C92.7245 67.7658 89.2138 67.2152 87.2625 69.3616L93.182 74.7429ZM84.5576 81.7968C85.9663 81.7968 87.3096 81.2025 88.2573 80.1602L82.3377 74.7788C82.9063 74.1534 83.7123 73.7968 84.5576 73.7968L84.5576 81.7968ZM71.1147 78.7968C71.1147 80.4537 69.7715 81.7968 68.1147 81.7968V73.7968C65.3533 73.7968 63.1147 76.0354 63.1147 78.7968L71.1147 78.7968ZM51.891 101.067C51.3225 101.693 50.5164 102.049 49.6712 102.049V94.0494C48.2625 94.0494 46.9191 94.6437 45.9715 95.686L51.891 101.067ZM68.1147 94.0498C69.7715 94.0498 71.1147 95.3929 71.1147 97.0498L63.1147 97.0498C63.1147 99.8112 65.3533 102.05 68.1147 102.05V94.0498ZM41.0469 101.103C42.9625 98.996 46.4089 99.5366 47.5873 102.129L40.3043 105.439C41.5046 108.08 45.0152 108.631 46.9664 106.484L41.0469 101.103ZM63.1143 97.0494C63.1143 95.3925 64.4574 94.0494 66.1143 94.0494V102.049C68.8757 102.049 71.1143 99.8108 71.1143 97.0494H63.1143ZM88.2575 95.6864C87.3099 94.644 85.9665 94.0498 84.5578 94.0498L84.5578 102.05C83.7126 102.05 82.9065 101.693 82.338 101.068L88.2575 95.6864ZM66.1143 81.7964C64.4574 81.7964 63.1143 80.4533 63.1143 78.7964H71.1143C71.1143 76.035 68.8757 73.7964 66.1143 73.7964V81.7964ZM93.9248 105.44C92.774 107.971 89.4653 108.546 87.5193 106.606L93.1677 100.941C91.185 98.9642 87.8142 99.5505 86.642 102.129L93.9248 105.44ZM45.9719 80.1598C46.9195 81.2021 48.2628 81.7964 49.6716 81.7964V73.7964C50.5168 73.7964 51.3228 74.153 51.8914 74.7784L45.9719 80.1598ZM86.642 102.129C87.8204 99.5368 91.2666 98.9964 93.182 101.103L87.2625 106.485C89.2137 108.631 92.7243 108.081 93.9248 105.44L86.642 102.129Z" fill="#E3E7F4" mask="url(#path-4-inside-1_150_189)"/>
</svg>
