<svg width="100" height="124" viewBox="0 0 100 124" fill="none" xmlns="http://www.w3.org/2000/svg">
<path d="M62 41.0541H15" stroke="#E3E7F4" stroke-width="4" stroke-linecap="round"/>
<path d="M62 68.0541H15" stroke="#E3E7F4" stroke-width="4" stroke-linecap="round"/>
<path d="M62 93.0541H15" stroke="#E3E7F4" stroke-width="4" stroke-linecap="round"/>
<path d="M62 48.0541H15" stroke="#E3E7F4" stroke-width="4" stroke-linecap="round"/>
<path d="M62 75.0541H15" stroke="#E3E7F4" stroke-width="4" stroke-linecap="round"/>
<path d="M62 101.054H15" stroke="#E3E7F4" stroke-width="4" stroke-linecap="round"/>
<mask id="path-7-inside-1_200_2" fill="white">
<rect y="15.5134" width="100" height="108.108" rx="3"/>
</mask>
<rect y="15.5134" width="100" height="108.108" rx="3" stroke="#E3E7F4" stroke-width="8" mask="url(#path-7-inside-1_200_2)"/>
<path d="M30.7297 11.4595H35.7322C36.1787 11.4595 36.5711 11.1635 36.6937 10.7342L38.982 2.72528C39.1046 2.29598 39.497 2 39.9435 2H60.0565C60.503 2 60.8954 2.29598 61.018 2.72528L63.3063 10.7342C63.429 11.1635 63.8213 11.4595 64.2678 11.4595H69.2703C69.8226 11.4595 70.2703 11.9072 70.2703 12.4595V22.6216C70.2703 23.1739 69.8226 23.6216 69.2703 23.6216H30.7297C30.1775 23.6216 29.7297 23.1739 29.7297 22.6216V12.4595C29.7297 11.9072 30.1775 11.4595 30.7297 11.4595Z" fill="#353755" stroke="#E3E7F4" stroke-width="4"/>
<mask id="path-9-inside-2_200_2" fill="white">
<rect x="69" y="37.0541" width="17" height="17" rx="3"/>
</mask>
<rect x="69" y="37.0541" width="17" height="17" rx="3" stroke="#E3E7F4" stroke-width="8" mask="url(#path-9-inside-2_200_2)"/>
<mask id="path-10-inside-3_200_2" fill="white">
<rect x="69" y="63.0541" width="17" height="17" rx="3"/>
</mask>
<rect x="69" y="63.0541" width="17" height="17" rx="3" stroke="#E3E7F4" stroke-width="8" mask="url(#path-10-inside-3_200_2)"/>
<mask id="path-11-inside-4_200_2" fill="white">
<rect x="69" y="89.0541" width="17" height="17" rx="3"/>
</mask>
<rect x="69" y="89.0541" width="17" height="17" rx="3" stroke="#E3E7F4" stroke-width="8" mask="url(#path-11-inside-4_200_2)"/>
</svg>
