<?xml version="1.0" encoding="iso-8859-1"?>
<!-- Uploaded to: SVG Repo, www.svgrepo.com, Generator: SVG Repo Mixer Tools -->
<!DOCTYPE svg PUBLIC "-//W3C//DTD SVG 1.1//EN" "http://www.w3.org/Graphics/SVG/1.1/DTD/svg11.dtd">
<svg fill="#000000" version="1.1" id="Capa_1" xmlns="http://www.w3.org/2000/svg" xmlns:xlink="http://www.w3.org/1999/xlink" 
	 width="800px" height="800px" viewBox="0 0 47 47" xml:space="preserve">
<g>
	<g>
		<path d="M46.486,22.015c-0.418-0.53-10.312-12.976-22.988-12.976c-12.676,0-22.572,12.446-22.986,12.976
			c-0.684,0.873-0.684,2.099,0,2.971c0.414,0.531,10.31,12.976,22.986,12.976c12.676,0,22.57-12.444,22.988-12.976
			C47.171,24.114,47.171,22.887,46.486,22.015z M19.061,30.904c-0.871,0-1.587-0.713-1.587-1.586v-5.353
			c0-0.871,0.716-1.585,1.587-1.585h0.214v-2.059c0-2.331,1.896-4.228,4.225-4.228c2.33,0,4.225,1.896,4.225,4.228v2.059h0.216
			c0.871,0,1.587,0.714,1.587,1.585v5.353c0,0.873-0.716,1.586-1.587,1.586H19.061z M5.61,23.5c2.162-2.318,6.806-6.716,12.44-8.665
			c-2.879,1.813-4.796,5.01-4.796,8.664c0,3.655,1.917,6.851,4.796,8.664C12.416,30.214,7.77,25.816,5.61,23.5z M28.931,32.174
			c2.889-1.811,4.813-5.014,4.813-8.675c0-3.653-1.917-6.85-4.796-8.664c5.637,1.95,10.283,6.352,12.442,8.667
			C39.234,25.826,34.587,30.232,28.931,32.174z"/>
		<path d="M23.499,18.208c-1.164,0-2.109,0.948-2.109,2.113v2.059h4.219v-2.059C25.607,19.157,24.664,18.208,23.499,18.208z"/>
	</g>
</g>
</svg>