<?xml version="1.0" encoding="UTF-8"?>
<svg version="1.1" viewBox="0 0 1600 1600" width="auto" height="auto" xmlns="http://www.w3.org/2000/svg">
<path transform="translate(692 -.679)" d="m0 0c2.62-0.0101 5.23-0.0222 7.85-0.0363 6.35-0.0298 12.7-0.0326 19-0.025 5.17 0.00584 10.3 0.0026 15.5-0.00697 0.738-0.00134 1.48-0.00269 2.24-0.00407 1.5-0.00274 3-0.0055 4.5-0.00826 14-0.0246 28.1-0.017 42.1 5.7e-4 12.8 0.0151 25.6-0.00908 38.4-0.052 13.2-0.0439 26.4-0.0616 39.5-0.0512 7.39 0.00539 14.8 8.32e-4 22.2-0.031 6.95-0.0296 13.9-0.022 20.9 0.00972 2.54 0.00603 5.08 2.9e-4 7.62-0.0185 17.1-0.117 30.5 1.01 44 12.2 1.52 1.52 3 3.08 4.44 4.69 0.62 0.691 1.24 1.38 1.88 2.09 5.72 7.27 8.61 16 11.8 24.6 1.45 3.8 2.92 7.6 4.4 11.4 2.38 6.1 4.75 12.2 7.12 18.3 0.306 0.787 0.611 1.57 0.926 2.39 1.91 4.93 3.82 9.86 5.73 14.8 1.27 3.27 2.53 6.54 3.8 9.81 0.602 1.55 1.2 3.11 1.8 4.66 3.76 9.78 3.76 9.78 7.88 19.4 1.6 3.61 1.6 3.61 1.6 5.61 0.64 0.165 1.28 0.33 1.94 0.5 34.7 9.18 67.9 24 100 39.4 0.959 0.459 1.92 0.917 2.91 1.39 1.79 0.856 3.57 1.72 5.35 2.58 1.19 0.574 1.19 0.574 2.4 1.16 0.683 0.332 1.37 0.664 2.07 1.01 0.725 0.315 1.45 0.63 2.2 0.955 0.909 0.437 1.82 0.875 2.75 1.33 4.63 0.962 7.3-0.563 11.5-2.58 1.19-0.547 1.19-0.547 2.4-1.1 2.6-1.2 5.18-2.42 7.76-3.65 1.8-0.837 3.61-1.67 5.42-2.5 2.75-1.27 5.5-2.54 8.25-3.81 8.25-3.83 16.6-7.5 24.9-11.1 2.58-1.12 5.16-2.24 7.74-3.36 0.616-0.267 1.23-0.535 1.87-0.81 4.18-1.82 8.32-3.69 12.5-5.6 17.4-7.97 33.3-14.3 52.2-7.67 7.79 3.57 14.7 8.87 20.7 14.9v2c0.959 0.402 0.959 0.402 1.94 0.812 2.06 1.19 2.06 1.19 3.06 4.19 0.99 0.33 1.98 0.66 3 1v2c1.32 0.66 2.64 1.32 4 2v2c0.99 0.33 1.98 0.66 3 1v2c0.99 0.33 1.98 0.66 3 1 2.19 1.94 2.19 1.94 4 4v2c0.99 0.33 1.98 0.66 3 1 1.22 1.45 2.44 2.91 3.61 4.39 1.54 1.88 1.54 1.88 4.39 4.11 3.1 2.59 5.43 5.4 8 8.5 0.804 0.639 1.61 1.28 2.44 1.94 2.77 2.23 4.83 4.67 7.09 7.4 1.94 2.18 4.19 3.85 6.47 5.66 0.804 0.969 1.61 1.94 2.44 2.94 2.47 3.14 2.47 3.14 5.56 5.56 3.11 2.59 5.42 5.4 8 8.5l3 2.5c3.11 2.59 5.42 5.4 8 8.5 2 1.67 4 3.34 6 5 1.33 1.67 2.67 3.33 4 5 0.969 0.804 1.94 1.61 2.94 2.44 3.13 2.62 5.46 5.44 8.06 8.56l3 2.5c3.1 2.59 5.43 5.4 8 8.5 0.804 0.639 1.61 1.28 2.44 1.94 2.19 1.76 3.73 3.36 5.5 5.5 1.92 2.32 3.83 4.31 6.19 6.19 2.76 2.28 4.65 4.6 6.88 7.38 0.969 0.804 1.94 1.61 2.94 2.44 3.13 2.62 5.46 5.44 8.06 8.56 1.94 1.75 3.97 3.36 6 5 2.38 2.19 2.38 2.19 4 4v2c1.32 0.66 2.64 1.32 4 2v2c0.99 0.33 1.98 0.66 3 1 1.61 1.6 1.61 1.6 3.31 3.62 2.6 3.1 2.6 3.1 5.3 6.11 7.77 8.43 11.7 18.8 11.8 30.3 0.0329 0.654 0.0657 1.31 0.0996 1.98 0.143 13.8-7.93 27.9-13.5 40.2-1.78 3.92-3.53 7.85-5.29 11.8-0.905 2.02-1.81 4.04-2.72 6.06-4.21 9.39-8.37 18.8-12.5 28.2-0.729 1.67-1.46 3.33-2.19 5-1.63 3.7-3.24 7.41-4.81 11.1-0.9 2.13-1.83 4.24-2.82 6.33-1.42 3.27-1.99 5.25-1.08 8.75 1.17 2.82 2.53 5.44 3.99 8.12 1.05 2.05 2.09 4.1 3.13 6.14l1.64 3.16c2.5 4.9 4.81 9.88 7.1 14.9 0.452 0.988 0.904 1.98 1.37 2.99 9.06 20 16.8 40.4 24 61.1 1 2.86 2.02 5.72 3.05 8.58 0.286 0.8 0.573 1.6 0.868 2.42 0.515 1.44 1.03 2.88 1.55 4.31 1.62 4.57 1.62 4.57 1.62 6.79l3.74 1.21c5.89 1.96 11.7 4.2 17.4 6.44 1.16 0.449 2.33 0.898 3.53 1.36 3.12 1.2 6.24 2.41 9.36 3.62 1.93 0.748 3.87 1.5 5.8 2.24 6.39 2.47 12.8 4.95 19.2 7.43 5.08 1.97 10.2 3.94 15.3 5.9 3.03 1.17 6.05 2.34 9.07 3.52 1.32 0.513 2.64 1.02 3.96 1.53 16.5 6.35 29.6 13.4 37.7 29.8 3.23 7.88 4.58 14.9 4.51 23.4 0.00624 1.08 0.0125 2.16 0.0189 3.27 0.0158 3.58 0.00336 7.17-0.00927 10.7 0.00543 2.58 0.0126 5.17 0.0212 7.75 0.0177 6.27 0.014 12.5 0.00235 18.8-0.00906 5.1-0.0102 10.2-0.0059 15.3 6.13e-4 0.728 0.00123 1.46 0.00186 2.2 0.00128 1.48 0.00258 2.96 0.00389 4.44 0.0114 13.8-0.00167 27.7-0.0232 41.5-0.0179 11.9-0.0148 23.7 0.00368 35.6 0.0214 13.8 0.0298 27.6 0.0176 41.4-0.00127 1.47-0.00253 2.95-0.00377 4.42-6.17e-4 0.724-0.00123 1.45-0.00187 2.2-0.00344 5.09 0.00235 10.2 0.0118 15.3 0.0124 6.86 0.00348 13.7-0.0196 20.6-0.00527 2.51-0.0038 5.02 0.00505 7.53 0.011 3.44-0.00286 6.87-0.0227 10.3 0.00892 0.984 0.0178 1.97 0.027 2.98-0.133 11.9-4.51 21.9-11.5 31.4-0.477 0.647-0.954 1.29-1.45 1.96-7.49 8.67-20.5 12.7-30.9 16.8-0.864 0.344-1.73 0.687-2.62 1.04-8.39 3.33-16.8 6.61-25.2 9.88-2.62 1.02-5.23 2.05-7.85 3.08-7.79 3.06-15.6 6.1-23.5 8.94-3.07 1.11-6.13 2.24-9.19 3.37-1.42 0.519-2.85 1.02-4.28 1.52-7.67 2.43-7.67 2.43-13.6 7.48-1.09 2.61-1.76 5.16-2.42 7.92-0.787 2.35-1.59 4.69-2.41 7.03-0.433 1.28-0.864 2.57-1.29 3.86-7.18 21.4-15.6 42.3-24.8 62.9-0.269 0.607-0.539 1.21-0.816 1.84-2.83 6.36-5.77 12.6-9.06 18.8-0.527 0.992-1.05 1.98-1.6 3.01-0.987 1.83-2 3.65-3.04 5.45-2.42 4.42-2.42 4.42-2.76 9.33 0.753 2.38 1.71 4.55 2.78 6.81 0.751 1.85 1.5 3.7 2.24 5.55 0.873 2.07 1.75 4.14 2.63 6.2 0.722 1.7 0.722 1.7 1.46 3.43 3.53 8.25 7.17 16.4 10.9 24.6 4.87 10.8 9.69 21.6 14.4 32.5 0.714 1.64 1.43 3.27 2.15 4.91 1.01 2.3 2.01 4.6 3.01 6.9 0.298 0.676 0.597 1.35 0.904 2.05 4.9 11.4 6.79 24.8 2.71 36.7-4.02 8.96-8.99 16.3-16 23.2-0.744 0.751-1.49 1.5-2.25 2.28-2.47 2.49-4.96 4.97-7.45 7.44-1.79 1.79-3.57 3.59-5.35 5.38-4.33 4.35-8.67 8.69-13 13-3.53 3.53-7.06 7.06-10.6 10.6-0.504 0.505-1.01 1.01-1.53 1.53-1.02 1.03-2.05 2.05-3.07 3.08-9.58 9.6-19.2 19.2-28.8 28.8-8.76 8.75-17.5 17.5-26.3 26.3-8.99 9.02-18 18-27 27-1.02 1.02-2.04 2.04-3.06 3.06-0.754 0.753-0.754 0.753-1.52 1.52-3.52 3.52-7.04 7.05-10.6 10.6-4.74 4.76-9.49 9.51-14.3 14.2-1.74 1.74-3.48 3.48-5.21 5.22-13.3 13.4-25.3 24.5-45 25.4-13.5-0.0416-25.7-5.95-37.6-11.8-7.23-3.53-14.6-6.75-22-9.92-2.56-1.1-5.13-2.21-7.69-3.31-0.657-0.283-1.31-0.566-1.99-0.857-9.78-4.22-19.5-8.55-29.3-12.9-0.698-0.309-1.4-0.618-2.12-0.936-1.3-0.576-2.6-1.15-3.91-1.73-7.27-3.68-7.27-3.68-15-3.18-2.64 1.14-5.22 2.31-7.81 3.56-1.13 0.539-1.13 0.539-2.29 1.09-3.55 1.7-7.09 3.43-10.6 5.24-17.7 9.14-36.3 16.7-54.9 23.8-1.78 0.684-1.78 0.684-3.6 1.38-6.1 2.3-12.2 4.37-18.5 6.16-1.23 0.363-2.46 0.727-3.72 1.1-2.32 0.674-4.66 1.31-7.01 1.89-4.52 1.32-7.65 2.4-10.5 6.29-1.33 2.78-2.46 5.57-3.48 8.48-0.744 2.12-1.55 4.21-2.38 6.31-1.59 4.05-3.12 8.11-4.65 12.2-1.73 4.61-3.48 9.22-5.23 13.8-0.362 0.954-0.724 1.91-1.1 2.89-3.72 9.8-7.5 19.6-11.3 29.3-0.72 1.84-1.44 3.68-2.15 5.52-8.08 20.8-14.9 35.3-35.7 45.1-6.78 2.65-12.6 3.13-19.9 3.12-1.07 0.00594-2.14 0.0119-3.24 0.018-3.58 0.0173-7.15 0.0204-10.7 0.0234-2.57 0.00926-5.13 0.0193-7.7 0.0301-6.97 0.0271-13.9 0.0392-20.9 0.048-4.36 0.00554-8.72 0.014-13.1 0.023-12.1 0.0244-24.2 0.045-36.3 0.0518-0.773 4.39e-4 -1.55 8.78e-4 -2.34 0.00133-0.774 4.37e-4 -1.55 8.73e-4 -2.35 0.00132-1.57 8.87e-4 -3.14 0.00178-4.71 0.00268-0.778 4.43e-4 -1.56 8.86e-4 -2.36 0.00134-12.6 0.00789-25.2 0.0428-37.8 0.0894-13 0.0476-25.9 0.0724-38.9 0.0747-7.26 0.00183-14.5 0.0132-21.8 0.0496-6.84 0.0342-13.7 0.0372-20.5 0.0197-2.5-0.00153-5 0.00706-7.5 0.0269-17.7 0.132-33.7-0.731-47.2-13.7-0.897-0.822-0.897-0.822-1.81-1.66-4.04-4.1-6.67-8.76-9.25-13.8-0.304-0.597-0.609-1.19-0.922-1.81-2.88-5.93-5.1-12.1-7.38-18.3-1.64-4.42-3.31-8.82-5.01-13.2-0.435-1.13-0.435-1.13-0.879-2.29-1.56-4.07-3.13-8.13-4.71-12.2-3.03-7.82-6.04-15.6-8.86-23.5-1.19-3.33-2.41-6.65-3.63-9.97-0.57-1.57-1.13-3.15-1.67-4.73-2.63-8.44-2.63-8.44-8-15.1-2.61-1.09-5.12-1.7-7.88-2.31-2.33-0.772-4.64-1.57-6.96-2.38-1.27-0.428-2.55-0.854-3.83-1.28-17.1-5.7-33.7-12.2-50.2-19.3-2.12-0.9-4.24-1.8-6.36-2.7-12.1-5.18-24.1-10.6-35.7-16.9-0.879-0.469-1.76-0.938-2.66-1.42-0.726-0.403-1.45-0.807-2.2-1.22-4.42-1.49-8.66 0.813-12.7 2.59-1.13 0.491-2.25 0.981-3.41 1.49-1.24 0.547-2.49 1.09-3.73 1.64-1.31 0.574-2.63 1.15-3.94 1.72-4.44 1.94-8.88 3.89-13.3 5.84-1.67 0.734-3.34 1.47-5 2.2-2.6 1.14-5.21 2.29-7.81 3.43-30.6 13.5-30.6 13.5-43.3 18.9-1.01 0.438-2.03 0.877-3.08 1.33-12.3 5.21-25.1 7.52-38.2 3.67-14-5.68-24-17.4-34.4-27.8-1.77-1.77-3.55-3.53-5.32-5.3-4.3-4.28-8.59-8.57-12.9-12.9-3.49-3.49-6.98-6.98-10.5-10.5-0.499-0.498-0.998-0.996-1.51-1.51-1.01-1.01-2.03-2.02-3.04-3.04-9.48-9.47-19-18.9-28.4-28.4-8.65-8.66-17.3-17.3-26-25.9-8.92-8.89-17.8-17.8-26.7-26.7-4.99-4.99-9.98-9.98-15-15-4.7-4.68-9.39-9.38-14.1-14.1-1.72-1.72-3.43-3.44-5.16-5.15-13.2-13.1-24.8-24.9-25.8-44.5 0.312-12.9 5.96-24.8 11.3-36.3 1.07-2.34 2.13-4.69 3.19-7.03 0.738-1.63 1.48-3.25 2.22-4.88 4.25-9.33 8.32-18.7 12.4-28.1 1.02-2.36 2.05-4.71 3.07-7.07 0.656-1.51 1.31-3.02 1.96-4.53 1.7-3.92 3.44-7.81 5.24-11.7 0.372-0.806 0.744-1.61 1.13-2.44 0.709-1.53 1.43-3.06 2.16-4.58 2.08-4.53 3.02-8 2.44-13.1-1.03-2.94-1.03-2.94-2.61-5.75-0.847-1.63-0.847-1.63-1.71-3.29-0.926-1.74-0.926-1.74-1.87-3.52-1.3-2.52-2.59-5.05-3.88-7.58-0.33-0.649-0.66-1.3-1-1.97-13.8-27.3-24.9-56.5-34.1-85.6-0.334-1.05-0.668-2.1-1.01-3.18-0.285-0.918-0.57-1.84-0.864-2.78-1.67-3.98-3.65-5.18-7.59-6.95-1.52-0.592-3.04-1.18-4.56-1.75-0.822-0.318-1.64-0.637-2.49-0.965-2.69-1.04-5.39-2.07-8.09-3.1-1.87-0.721-3.74-1.44-5.61-2.16-4.68-1.81-9.36-3.6-14-5.4-3.78-1.45-7.56-2.91-11.3-4.37-0.662-0.256-1.32-0.512-2.01-0.775-6.76-2.61-13.5-5.23-20.3-7.85-1.76-0.684-1.76-0.684-3.56-1.38-3.4-1.32-6.79-2.66-10.2-3.99-1.47-0.571-1.47-0.571-2.97-1.15-15.7-6.25-27.4-13.8-34.3-29.8-2.72-6.86-3.58-12.7-3.52-20-0.00695-1.09-0.0139-2.17-0.021-3.29-0.0182-3.61-0.00803-7.22 0.00226-10.8-0.00706-2.6-0.0158-5.2-0.0261-7.8-0.0216-6.31-0.0215-12.6-0.0134-18.9 0.00632-5.14 0.00515-10.3-0.00127-15.4-9.02e-4 -0.733-0.0018-1.47-0.00273-2.22-0.00185-1.49-0.00371-2.98-0.00559-4.47-0.0166-13.9-0.00788-27.9 0.00899-41.8 0.0147-12.7 7.19e-5 -25.5-0.0288-38.2-0.0294-13.1-0.0403-26.2-0.0308-39.3 0.00102-1.48 0.00202-2.97 0.00298-4.45 4.76e-4 -0.73 9.53e-4 -1.46 0.00144-2.21 0.00216-5.12-0.0076-10.2-0.0222-15.4-0.0194-6.91-0.0123-13.8 0.0122-20.7 5e-3 -2.53 0.00155-5.06-0.0111-7.59-0.113-24.5-0.113-24.5 5.65-35 0.814-1.52 0.814-1.52 1.65-3.07 11.2-20 37.5-25.6 57.5-33.3 5.8-2.22 11.6-4.47 17.4-6.74 0.902-0.353 1.8-0.705 2.73-1.07 3.58-1.4 7.17-2.8 10.8-4.21 1.68-0.66 3.37-1.32 5.06-1.98 1.63-0.638 3.25-1.28 4.88-1.93 3.85-1.53 7.69-2.94 11.7-4.12 7.39-2.05 7.39-2.05 13.1-6.87 1.07-2.88 1.69-5.69 2.3-8.71 0.764-2.36 1.56-4.71 2.38-7.05 0.427-1.27 0.853-2.54 1.28-3.82 9.23-27.5 20.2-54.5 33.5-80.3 0.511-0.996 1.02-1.99 1.55-3.02 0.975-1.89 1.96-3.76 2.97-5.63 0.659-1.27 0.659-1.27 1.33-2.56 0.391-0.732 0.782-1.46 1.18-2.22 2.08-6.05 0.59-11-2.03-16.6-0.306-0.678-0.613-1.36-0.928-2.05-0.666-1.47-1.34-2.94-2.01-4.4-1.08-2.35-2.15-4.7-3.22-7.05-1.13-2.5-2.27-5.01-3.4-7.51-4.05-8.9-7.99-17.8-11.9-26.8-1.12-2.55-2.24-5.1-3.36-7.64-3.61-8.22-7.19-16.5-10.7-24.7-0.332-0.775-0.664-1.55-1.01-2.35-5.82-13.8-6.96-25-2.59-39.4 5.96-14.6 19.8-26.1 30.7-37 1.69-1.69 3.38-3.39 5.06-5.08 4.09-4.1 8.18-8.19 12.3-12.3 3.33-3.33 6.66-6.66 9.99-9.99 0.476-0.476 0.951-0.953 1.44-1.44 0.967-0.968 1.93-1.94 2.9-2.9 9.04-9.05 18.1-18.1 27.1-27.1 8.26-8.25 16.5-16.5 24.8-24.8 8.49-8.51 17-17 25.5-25.5 4.77-4.76 9.53-9.53 14.3-14.3 4.47-4.49 8.95-8.96 13.4-13.4 1.64-1.64 3.28-3.28 4.91-4.92 14.4-14.5 27.1-26.4 48.3-28.6 13.8 0.495 26.9 7.43 39.2 13 1.87 0.841 3.75 1.68 5.62 2.52 3.88 1.74 7.76 3.48 11.6 5.22 8.53 3.83 17.1 7.59 25.6 11.3 2.59 1.14 5.18 2.27 7.77 3.41 3.11 1.37 6.22 2.72 9.33 4.07 2.6 1.13 5.16 2.29 7.72 3.49 1.05 0.478 2.1 0.956 3.18 1.45l2.66 1.25c4.88 1.17 9.14-1.55 13.4-3.74 0.896-0.454 1.79-0.908 2.72-1.38 0.941-0.481 1.88-0.961 2.85-1.46 8.78-4.43 17.6-8.79 26.6-12.8 0.728-0.326 1.46-0.653 2.21-0.989 9.61-4.28 19.3-8.29 29.1-12 2.46-0.946 4.91-1.92 7.35-2.91 6.26-2.51 12-4.3 18.8-4.97 8.25-1.13 15.8-2.65 21.5-9.08 9.49-14.8 14.3-33.3 19.7-49.9 2.79-8.61 5.99-17 9.33-25.4 0.828-2.1 1.63-4.21 2.43-6.32 6.52-17.1 12.7-32.4 29.6-41.3 0.676-0.41 1.35-0.82 2.05-1.24 11.1-5.75 23.5-4.47 35.7-4.44zm15.3 93.7c-0.635 1.42-1.27 2.84-1.9 4.26-0.353 0.791-0.706 1.58-1.07 2.4-1.46 3.33-2.81 6.71-4.14 10.1-0.284 0.72-0.568 1.44-0.86 2.18-0.611 1.55-1.22 3.1-1.83 4.65-0.972 2.47-1.95 4.95-2.92 7.42-3.56 9.03-7.08 18.1-10.6 27.1-1.06 2.74-2.12 5.48-3.18 8.22-0.999 2.59-1.99 5.18-2.98 7.78-9.74 25.3-9.74 25.3-15.5 30.9v2c-0.578 0.271-1.16 0.543-1.75 0.822-2.25 1.18-4.16 2.53-6.2 4.03-5.54 3.73-11.4 5.61-17.7 7.59-1.19 0.385-2.38 0.77-3.61 1.17-5.46 1.76-10.9 3.47-16.4 5.18-36.2 11.3-71.3 25.6-104 43.9-24.5 13.5-24.5 13.5-37.5 13.6-1.27 0.0284-2.54 0.0567-3.85 0.0859-11.5-0.695-22.3-6.39-32.6-11.1-4.15-1.9-8.31-3.78-12.5-5.65-0.854-0.387-1.71-0.773-2.59-1.17-9.34-4.22-18.7-8.28-28.1-12.3-0.78-0.336-1.56-0.672-2.36-1.02-1.14-0.491-1.14-0.491-2.3-0.991-0.736-0.317-1.47-0.634-2.23-0.96-1.41-0.606-2.82-1.21-4.23-1.81-4.29-1.84-8.52-3.77-12.7-5.88-2.69-0.755-4.19-0.358-6.87 0.475-2 1.63-3.74 3.22-5.54 5.06-0.803 0.798-0.803 0.798-1.62 1.61-1.79 1.78-3.57 3.58-5.34 5.38-1.28 1.28-2.56 2.56-3.84 3.84-3.48 3.48-6.95 6.97-10.4 10.5-3.62 3.65-7.26 7.28-10.9 10.9-6.88 6.89-13.7 13.8-20.6 20.7-7.82 7.86-15.6 15.7-23.5 23.6-16.1 16.1-32.2 32.3-48.3 48.5 0.282 0.648 0.564 1.3 0.854 1.96 1.3 2.98 2.6 5.97 3.89 8.95 0.443 1.02 0.887 2.04 1.34 3.09 2.66 6.12 5.3 12.2 7.92 18.4 0.325 0.761 0.649 1.52 0.984 2.31 1.21 2.83 2.41 5.66 3.62 8.5 3.52 8.28 7.12 16.5 11 24.6 2.36 5.02 4.6 10.1 6.74 15.2 0.333 0.78 0.666 1.56 1.01 2.36 3.09 7.35 5.03 14 4.99 21.9l0.0488 2.11c0.00983 10.7-4.6 19.5-9.54 28.8-1.03 1.93-2.04 3.86-3.06 5.8-1.33 2.54-2.66 5.07-4 7.61-3.04 5.79-5.98 11.6-8.85 17.5-0.635 1.3-1.28 2.59-1.92 3.88-14.4 29-24.8 59.6-34.3 90.5-0.352 1.13-0.703 2.26-1.07 3.43-0.631 2.04-1.25 4.09-1.85 6.15-2.17 7.05-5.09 14.3-10.4 19.6-1.55 1.27-1.55 1.27-1.31 3.34-0.576 0.275-1.15 0.55-1.74 0.833-2.23 1.15-4.25 2.46-6.35 3.83-7.69 4.63-16.1 7.54-24.5 10.7-1.8 0.692-3.6 1.39-5.4 2.08-3.76 1.45-7.52 2.89-11.3 4.33-8.52 3.27-17 6.59-25.5 9.92-3.45 1.35-6.89 2.69-10.3 4.03-1.57 0.612-3.13 1.23-4.7 1.84-3.17 1.25-6.33 2.47-9.54 3.62-0.911 0.332-1.82 0.664-2.76 1.01-0.749 0.259-1.5 0.519-2.27 0.786-1.76 0.86-1.76 0.86-2.23 2.61-0.554 3.28-0.54 6.52-0.526 9.83-8.54e-4 0.751-0.00171 1.5-0.00259 2.27-0.00165 2.52 0.00385 5.03 0.00932 7.55 2.82e-4 1.8 1.24e-4 3.61-4.43e-4 5.41-2.87e-4 4.9 0.0056 9.8 0.0126 14.7 0.00625 5.12 0.00684 10.2 0.00803 15.4 0.00311 9.69 0.0113 19.4 0.0213 29.1 0.0112 11 0.0167 22.1 0.0217 33.1 0.0105 22.7 0.028 45.4 0.0503 68.1 1.91 0.796 3.81 1.59 5.72 2.39 1.06 0.443 2.12 0.886 3.22 1.34 3.94 1.63 7.9 3.19 11.9 4.73 0.791 0.308 1.58 0.615 2.4 0.932 1.69 0.656 3.37 1.31 5.06 1.97 3.59 1.4 7.18 2.8 10.8 4.2 6.47 2.52 12.9 5.05 19.4 7.56 4.33 1.68 8.65 3.37 13 5.06 1.62 0.63 3.23 1.26 4.85 1.88 16.3 6.29 30 12 38.7 28 3.61 8.3 6.24 16.9 8.69 25.6 11 38 26.7 74.2 44.9 109 0.581 1.12 0.581 1.12 1.17 2.27 1.89 3.65 3.8 7.3 5.72 10.9 0.696 1.33 1.39 2.66 2.09 3.99 0.613 1.16 1.23 2.32 1.86 3.52 2.85 6.12 3.93 11.8 3.94 18.5 0.0245 0.67 0.049 1.34 0.0742 2.03 0.0691 12.4-6.07 24-11.1 35.1-0.651 1.45-1.3 2.91-1.95 4.37-1.03 2.32-2.07 4.63-3.11 6.95-4.37 9.77-8.65 19.6-12.9 29.4-8.81 20.1-8.81 20.1-13.4 30.1 6.79 7.72 13.9 15.1 21.1 22.4 1.2 1.2 2.39 2.41 3.59 3.62 3.88 3.92 7.77 7.82 11.7 11.7 0.664 0.667 1.33 1.33 2.01 2.02 6.26 6.29 12.5 12.6 18.8 18.9 8 8.02 16 16.1 24 24.1 5.62 5.67 11.3 11.3 16.9 17 3.37 3.37 6.73 6.75 10.1 10.1 3.14 3.18 6.3 6.34 9.47 9.5 1.16 1.16 2.32 2.33 3.47 3.5 1.57 1.59 3.15 3.17 4.74 4.74 1.33 1.33 1.33 1.33 2.68 2.69 2.35 2.04 2.35 2.04 5.15 1.59 2.67-0.959 5.28-1.98 7.88-3.11 1.12-0.486 2.23-0.972 3.38-1.47 1.23-0.543 2.47-1.09 3.7-1.63 1.3-0.568 2.6-1.14 3.9-1.7 8.15-3.56 16.3-7.16 24.4-10.8 0.939-0.416 1.88-0.831 2.85-1.26 4.65-2.06 9.3-4.12 13.9-6.18 8.23-3.66 16.5-7.27 24.8-10.7 0.698-0.29 1.4-0.581 2.11-0.88 10.4-4.28 24.2-5.36 35-1.67 1.8 0.797 3.57 1.66 5.31 2.56 0.592 0.301 1.18 0.602 1.8 0.912 4.34 2.21 8.62 4.51 12.9 6.84 38.3 20.8 78.1 36.6 120 49.2 2.18 0.667 4.35 1.34 6.53 2.01 1.08 0.33 2.16 0.66 3.27 1 12.5 3.98 22.3 10.2 28.7 22 1.09 2.3 2.14 4.6 3.16 6.94 0.449 1.03 0.449 1.03 0.907 2.08 3.74 8.69 7.07 17.5 10.4 26.4 1.96 5.17 3.93 10.3 5.9 15.5 0.391 1.03 0.783 2.05 1.19 3.11 3.34 8.75 6.69 17.5 10.1 26.2 0.555 1.42 1.11 2.85 1.66 4.28 0.751 1.95 1.51 3.89 2.27 5.83 0.42 1.08 0.839 2.16 1.27 3.27 0.899 2.54 0.899 2.54 3.13 3.4 2.41 0.0975 4.8 0.135 7.21 0.127 0.752 0.00156 1.5 0.00312 2.28 0.00473 2.53 0.00401 5.06 8.22e-4 7.6-0.00232 1.81 0.00135 3.62 0.00313 5.43 0.00531 4.93 0.00457 9.85 0.00279 14.8-3.79e-4 5.15-0.00253 10.3-1.86e-4 15.4 0.00139 8.64 0.00182 17.3-5.84e-4 25.9-0.00534 10-0.00544 20-0.00368 30 0.00183 8.58 0.00453 17.2 0.00518 25.7 0.00256 5.13-0.00156 10.3-0.00176 15.4 0.00154 4.82 0.00288 9.64 9e-4 14.5-0.00489 1.77-0.00133 3.55-9.35e-4 5.32 0.00126 2.41 0.00272 4.82-6.74e-4 7.24-0.00568 0.709 0.00223 1.42 0.00446 2.15 0.00676 3.66 0.031 3.66 0.031 7.06-1.13 0.876-1.71 0.876-1.71 1.61-3.83 0.306-0.818 0.611-1.64 0.926-2.48 0.328-0.899 0.657-1.8 0.995-2.72 0.721-1.93 1.44-3.87 2.16-5.8 0.377-1.01 0.754-2.03 1.14-3.07 1.89-5.05 3.83-10.1 5.78-15.1 0.59-1.53 0.59-1.53 1.19-3.08 0.804-2.08 1.61-4.15 2.41-6.23 0.806-2.08 1.61-4.16 2.42-6.25 4.31-11.2 8.66-22.3 13.1-33.4 0.526-1.32 0.526-1.32 1.06-2.66 5.4-13.3 11.8-24.1 25.2-30.4 4.92-1.94 9.94-3.47 15-5 44.6-13.5 88-30.1 129-53 7.6-4.26 14.8-8.16 23.5-9.33l3.52-0.523c11-0.688 20.7 2.89 30.5 7.4 1.27 0.569 2.54 1.14 3.82 1.7 2.79 1.24 5.57 2.49 8.35 3.74 4.96 2.23 9.94 4.42 14.9 6.6 0.882 0.387 1.76 0.774 2.67 1.17 3.58 1.57 7.15 3.14 10.7 4.7 2.6 1.14 5.21 2.28 7.81 3.42 0.828 0.363 1.66 0.725 2.51 1.1 4.71 2.07 9.4 4.16 14.1 6.28 0.987 0.441 1.97 0.881 2.99 1.33 1.72 0.767 3.43 1.54 5.14 2.34 3.92 1.83 3.92 1.83 8.07 1.44l1.66-1.33 2.75-2c0.743-0.66 1.48-1.32 2.25-2v-2c0.99-0.33 1.98-0.66 3-1 2.21-1.88 2.21-1.88 4-4v-2c0.99-0.33 1.98-0.66 3-1v-2c0.99-0.33 1.98-0.66 3-1 0.557-0.701 1.11-1.4 1.69-2.12 1.96-2.43 3.78-4.24 6.12-6.25 2.81-2.41 5.54-4.85 8.19-7.44l1.75-1.71c1.47-1.41 1.47-1.41 1.25-3.48 0.99-0.33 1.98-0.66 3-1v-2c0.99-0.33 1.98-0.66 3-1v-2c0.99-0.33 1.98-0.66 3-1v-2c0.581-0.256 1.16-0.512 1.76-0.776 2.46-1.35 4.11-2.84 6.09-4.82 0.74-0.734 1.48-1.47 2.24-2.22 0.789-0.793 1.58-1.59 2.39-2.4 0.816-0.814 1.63-1.63 2.47-2.47 1.72-1.72 3.44-3.44 5.15-5.16 2.64-2.65 5.28-5.28 7.93-7.92 1.67-1.67 3.34-3.34 5-5.01 0.797-0.793 1.59-1.59 2.41-2.4 1.09-1.1 1.09-1.1 2.21-2.22 0.645-0.647 1.29-1.29 1.96-1.96 1.59-1.53 1.59-1.53 1.38-3.63l1.69-0.688c2.97-1.69 5.03-3.78 7.31-6.31v-2c1.32-0.66 2.64-1.32 4-2v-2c0.572-0.248 1.14-0.495 1.73-0.75 2.62-1.44 4.41-3.13 6.52-5.25l2.14-2.12c1.83-1.72 1.83-1.72 1.61-3.88 0.619-0.248 1.24-0.495 1.88-0.75 2.51-1.48 2.89-2.69 4.12-5.25 0.99-0.33 1.98-0.66 3-1v-2c0.578-0.248 1.16-0.495 1.75-0.75 2.69-1.5 4.39-2.78 6.25-5.25-0.377-4.38-1.66-7.91-3.48-11.9-0.775-1.7-0.775-1.7-1.56-3.44-0.277-0.599-0.553-1.2-0.838-1.82-1.49-3.24-2.96-6.48-4.43-9.73-0.305-0.672-0.611-1.34-0.925-2.04-3.21-7.08-6.3-14.2-9.38-21.4-3.14-7.3-6.29-14.6-9.53-21.8l-1.52-3.41c-0.933-2.09-1.87-4.18-2.81-6.26-6.7-15-9.36-28.1-4.51-44.2 2.35-5.93 5.56-11.5 8.69-17 0.788-1.43 1.57-2.86 2.36-4.29 1.17-2.13 2.34-4.27 3.52-6.4 6.53-11.9 12.4-24 17.8-36.4 0.273-0.631 0.546-1.26 0.828-1.91 11.1-25.8 20.5-52.4 28-79.4 2-7.22 4.44-13.4 8.91-19.5 0.657-0.946 0.657-0.946 1.33-1.91 7.61-9.95 20-14.1 31.3-18.3 1.54-0.584 3.07-1.17 4.61-1.76 3.37-1.29 6.75-2.57 10.1-3.85 9.55-3.62 19.1-7.31 28.6-11 3.24-1.25 6.49-2.5 9.74-3.75 2.02-0.781 4.05-1.56 6.07-2.34 0.916-0.351 1.83-0.701 2.78-1.06 8.83-3.01 8.83-3.01 16.5-7.99 0.0998-2.33 0.134-4.63 0.127-6.96 0.00234-1.1 0.00234-1.1 0.00473-2.23 0.00401-2.49 8.19e-4 -4.97-0.00232-7.46 0.00135-1.78 0.00313-3.55 0.00531-5.33 0.00458-4.84 0.00278-9.67-3.79e-4 -14.5-0.00252-5.05-1.86e-4 -10.1 0.00139-15.2 0.00182-8.49-5.85e-4 -17-0.00534-25.5-0.00544-9.82-0.00369-19.6 0.00183-29.5 0.00454-8.42 0.00518-16.8 0.00256-25.3-0.00156-5.04-0.00176-10.1 0.00154-15.1 0.00289-4.74 8.85e-4 -9.48-0.00489-14.2-0.00132-1.74-9.42e-4 -3.48 0.00126-5.22 0.00273-2.37-6.94e-4 -4.75-0.00568-7.12 0.00223-0.689 0.00446-1.38 0.00676-2.09-0.0146-3.58-0.169-6.92-1.13-10.4-1.53-1.27-1.53-1.27-3.57-1.94-0.762-0.302-1.52-0.603-2.31-0.914-1.26-0.462-1.26-0.462-2.54-0.933-0.869-0.338-1.74-0.676-2.63-1.02-2.85-1.1-5.71-2.18-8.58-3.25-1.97-0.757-3.94-1.52-5.91-2.28-4.91-1.89-9.83-3.76-14.8-5.63-3.9-1.48-7.8-2.99-11.7-4.5-0.672-0.26-1.34-0.52-2.04-0.789-1.3-0.504-2.6-1.01-3.91-1.51-1.88-0.728-3.76-1.46-5.64-2.18-3.48-1.35-6.96-2.7-10.4-4.05-1.09-0.422-2.18-0.845-3.31-1.28-3.05-1.18-6.09-2.39-9.13-3.59-0.864-0.333-1.73-0.666-2.62-1.01-5.01-2.02-9.05-4.43-13.2-7.85-1.79-1.47-1.79-1.47-4.71-2.27-0.707-1.31-1.36-2.65-2-4-0.757-0.942-1.51-1.88-2.29-2.86-3.67-5.09-5.27-10.9-7.14-16.8-0.588-1.81-0.588-1.81-1.19-3.65-2.22-6.86-4.3-13.7-6.31-20.7-11-37.6-28.1-73.4-46.4-108-0.898-1.71-1.8-3.42-2.69-5.13-0.459-0.87-0.918-1.74-1.39-2.64-6.7-13-8.03-25.3-3.74-39.2 2.64-7.42 5.99-14.6 9.2-21.7 0.796-1.8 1.59-3.59 2.38-5.39 1.66-3.76 3.33-7.51 4.99-11.3 2.58-5.81 5.13-11.6 7.68-17.5 0.618-1.41 0.618-1.41 1.25-2.85 1.6-3.66 3.21-7.33 4.81-11 1.1-2.52 2.21-5.05 3.32-7.57 0.489-1.12 0.489-1.12 0.989-2.26 2.4-5.47 2.4-5.47 3.79-7.84 1.06-2.67 0.578-4.08-0.281-6.82-1.61-1.99-3.17-3.72-4.98-5.51-0.523-0.532-1.05-1.06-1.59-1.61-1.76-1.78-3.53-3.54-5.3-5.31-1.26-1.27-2.52-2.55-3.78-3.82-3.43-3.46-6.87-6.9-10.3-10.3-2.87-2.87-5.74-5.75-8.6-8.63-6.76-6.79-13.5-13.6-20.3-20.3-7-6.99-14-14-20.9-21-5.98-6.02-12-12-18-18-3.59-3.58-7.17-7.17-10.7-10.8-3.35-3.39-6.72-6.75-10.1-10.1-1.24-1.24-2.47-2.48-3.7-3.73-1.67-1.7-3.37-3.38-5.07-5.05-0.484-0.501-0.968-1-1.47-1.52-1.53-1.55-1.53-1.55-4.15-3.22-4.29 0.19-7.73 1.56-11.6 3.27-1.11 0.486-2.23 0.972-3.37 1.47-1.23 0.543-2.45 1.09-3.68 1.63-1.3 0.568-2.59 1.14-3.89 1.7-7.18 3.15-14.3 6.33-21.5 9.51-2.83 1.26-5.67 2.52-8.5 3.77-3.69 1.63-7.37 3.28-11.1 4.92-8.4 3.74-16.8 7.38-25.4 10.7-0.745 0.29-1.49 0.581-2.26 0.88-11.7 4.5-25 4.96-36.7 0.0335-8.23-3.82-16.1-8.47-24-12.9-36.6-20.5-77.1-35.6-118-46.9-17.3-4.83-17.3-4.83-23.6-11.3-1.66-2.06-1.66-2.06-3.86-1.82-0.272-0.568-0.545-1.14-0.825-1.72-1.21-2.34-2.56-4.52-3.97-6.75-3.48-5.77-5.98-11.8-8.45-18-0.475-1.18-0.949-2.37-1.44-3.59-4.62-11.6-9.08-23.2-13.5-34.8-2.6-6.82-5.21-13.6-7.82-20.4-1.02-2.66-2.04-5.33-3.06-7.99-0.628-1.64-1.26-3.28-1.89-4.92-0.291-0.765-0.582-1.53-0.882-2.32-1.14-3.46-1.14-3.46-3.14-6.4-2.4-0.0977-4.78-0.13-7.18-0.12-0.76-8.54e-4 -1.52-0.00171-2.3-0.00259-2.57-0.00166-5.13 0.00387-7.7 0.00932-1.83 2.82e-4 -3.67 1.24e-4 -5.5-4.43e-4 -4.99-2.88e-4 -9.98 0.00561-15 0.0126-5.21 0.00623-10.4 0.00684-15.6 0.00803-9.87 0.00311-19.7 0.0113-29.6 0.0213-11.2 0.0112-22.5 0.0167-33.7 0.0217-23.1 0.0105-46.2 0.0281-69.4 0.0503z" fill="#fff"/>
<path transform="translate(799 285)" d="m0 0c1.79-0.00101 1.79-0.00101 3.62-0.00204 20 0.0179 39.7 0.795 59.6 3.25 0.687 0.0825 1.37 0.165 2.08 0.25 32 3.85 63.3 10.9 93.9 20.8l3.26 1.05c46.8 15.2 91.6 37.6 132 66 1.21 0.843 2.41 1.68 3.62 2.53 7.81 5.48 15.4 11.3 22.8 17.2 1.44 1.15 2.88 2.28 4.33 3.41 5.14 4.05 10.1 8.29 14.9 12.7 2.03 1.85 4.09 3.66 6.17 5.45 12.4 10.8 24.8 22.1 35.5 34.7 2.1 2.43 4.29 4.77 6.47 7.12 4.75 5.21 9.1 10.6 13.4 16.2 1.88 2.43 3.8 4.83 5.75 7.21 7.99 9.74 15.1 19.9 22.1 30.4 0.538 0.801 1.08 1.6 1.63 2.43 8.82 13.1 16.8 26.7 24.4 40.6 0.699 1.26 0.699 1.26 1.41 2.55 33.9 61.4 54.1 133 58.6 202 0.0847 1.19 0.169 2.37 0.257 3.6 0.788 11.6 0.943 23.1 0.931 34.7-2.72e-4 0.962-5.44e-4 1.92-8.24e-4 2.92-0.0207 16-0.558 31.8-2.19 47.8-0.153 1.54-0.153 1.54-0.309 3.12-8.93 87.9-40.9 172-91.7 244-0.775 1.12-1.55 2.23-2.32 3.35-6.01 8.61-12.5 16.8-19.2 24.9-1.27 1.55-2.53 3.12-3.78 4.69-6.18 7.76-13 14.9-19.8 22.1-1.84 1.96-3.67 3.93-5.48 5.92-5 5.46-9.92 10.8-15.6 15.5-1.99 1.72-3.8 3.55-5.62 5.44-3.88 3.95-8.09 7.38-12.4 10.8-2.66 2.18-5.19 4.45-7.72 6.79-4.84 4.4-9.95 8.3-15.2 12.2-2.05 1.51-4.08 3.04-6.11 4.57-24.3 18.2-50.2 33.8-77.3 47.5-2.04 1.04-4.07 2.1-6.1 3.17-72.8 37.8-158 53.1-274 49.1-1.05-0.0965-2.09-0.193-3.17-0.292-52.9-5.12-104-19.8-153-40.6-2.38-1.01-4.76-2.01-7.14-3-15.2-6.4-29.5-14.4-43.7-22.8-2.71-1.62-5.46-3.17-8.24-4.68-5.37-2.97-10.5-6.28-15.6-9.64-1.01-0.659-2.01-1.32-3.05-2-14.7-9.72-28.7-20.1-42.2-31.5-2.43-2.03-4.91-3.99-7.39-5.96-5.61-4.56-10.8-9.53-16-14.5-0.983-0.936-0.983-0.936-1.99-1.89-0.585-0.561-1.17-1.12-1.77-1.7-1.78-1.66-1.78-1.66-4.63-3.46v-2c-0.592-0.266-1.18-0.531-1.79-0.805-5.86-3.18-10.2-9.24-14.5-14.2-1.69-1.9-3.44-3.69-5.25-5.47-3.71-3.66-7.11-7.54-10.5-11.5-0.802-0.924-1.6-1.85-2.43-2.8-7.57-8.78-14.6-17.9-21.6-27.2-0.534-0.713-1.07-1.43-1.62-2.16-57.2-76.7-89.4-168-98.4-263-0.105-1.05-0.209-2.09-0.317-3.17-1.1-12.7-0.927-25.4-0.933-38.1-6.75e-4 -1.27-0.00135-2.54-0.00204-3.86 0.0167-19.8 0.625-39.2 3.25-58.8 0.174-1.35 0.347-2.69 0.52-4.04 9.87-75.7 36.1-149 116-265 0.525-0.624 1.05-1.25 1.59-1.89 10.5-12.5 21.5-24.3 33-35.9 0.862-0.875 1.72-1.75 2.61-2.65 5.21-5.22 10.6-10 16.4-14.6 2.91-2.36 5.61-4.84 8.32-7.42 6.04-5.63 12.5-10.6 19.1-15.6 0.721-0.541 1.44-1.08 2.19-1.64 45.9-34.4 96.3-61.1 151-79.4 1.05-0.355 2.11-0.711 3.19-1.08 37.4-12.5 76.6-19.7 116-22.9 1.62-0.144 1.62-0.144 3.28-0.29 12.5-0.981 25-0.954 37.5-0.96zm-56.8 96.2c-1.01 0.145-2.03 0.289-3.07 0.438-23.8 3.42-47.1 9.09-69.9 16.6-1.25 0.403-1.25 0.403-2.52 0.815-44.1 14.4-85.9 36.6-122 65.2-1.04 0.772-2.07 1.54-3.14 2.34-7.6 5.67-14.6 11.8-21.4 18.3-1.89 1.76-3.83 3.45-5.79 5.13-3.72 3.22-7.18 6.67-10.6 10.2-2.54 2.55-5.09 5.09-7.65 7.61-5.34 5.29-10.5 10.6-15.4 16.4-0.808 0.931-1.62 1.86-2.45 2.82-41.3 47.8-70 106-86.6 166-0.361 1.31-0.361 1.31-0.729 2.64-3.22 11.9-5.37 24-7.46 36.1-0.19 1.08-0.19 1.08-0.384 2.18-3.83 21.9-4.82 44-4.74 66.2 0.00182 1.1 0.00365 2.21 0.00552 3.35 0.255 92.4 31.6 187 91.3 259 0.448 0.542 0.896 1.08 1.36 1.64 1.48 1.79 2.97 3.57 4.46 5.36 0.469 0.565 0.937 1.13 1.42 1.71 2.14 2.54 3.98 4.43 6.77 6.29 0.115-0.616 0.23-1.23 0.348-1.87 10.1-53.8 28.6-103 61.7-147 0.431-0.576 0.863-1.15 1.31-1.74 7.19-9.52 14.8-18.8 23.5-27 1.38-1.22 1.38-1.22 1.16-3.26h2c1.3-1.33 1.3-1.33 2.62-3.06 3.44-4.13 7.27-7.48 11.4-10.9 0.902-0.79 1.8-1.58 2.73-2.39 14.4-12.6 30-23.5 46.3-33.6l2.93-1.84c5.53-3.39 11.2-6.35 17.1-9.16-0.574-3.48-1.63-4.87-4.25-7.19-10.6-10.2-19.3-23.1-26.8-35.8-0.398-0.677-0.796-1.35-1.21-2.05-26.3-45.5-32.6-101-19.2-152 10.1-36.2 29-66.6 55.4-93.1 0.541-0.588 1.08-1.18 1.64-1.78 25.6-27.4 64.1-44.4 100-51.2 1.22-0.246 1.22-0.246 2.46-0.496 23.7-4.66 50-4.36 73.5 0.496 0.842 0.166 1.68 0.333 2.55 0.504 33.1 6.68 63.9 21.4 89.4 43.5 0.806 0.695 1.61 1.39 2.44 2.11 2.56 2.26 5.07 4.56 7.56 6.89 0.492 0.458 0.985 0.917 1.49 1.39 37.7 35.3 58.2 86.1 60.4 137 1.39 52.2-16.4 102-50.9 141-2.28 2.4-4.59 4.73-7 7 1.14 3.42 1.51 3.58 4.52 5.21 0.746 0.414 1.49 0.829 2.26 1.26 0.816 0.445 1.63 0.891 2.47 1.35 20.6 11.6 40.4 25.1 57.8 41.2 1.45 1.28 2.91 2.55 4.38 3.81 2.1 1.82 4.06 3.63 6 5.62 1.49 1.79 1.49 1.79 3.62 1.56l0.684 1.68c1.71 3 3.88 5 6.38 7.38 5.44 5.31 10.2 11 14.9 16.9 0.921 1.11 1.84 2.22 2.77 3.32 35.3 42.6 60.4 99.5 66.2 155 3.09 0.334 3.09 0.334 5.06-1.84 7.17-8.01 13.6-16.5 19.9-25.2 0.503-0.689 1.01-1.38 1.52-2.09 10.9-15 20.5-30.7 29.4-47 0.692-1.26 1.39-2.52 2.08-3.77 5.23-9.42 9.79-19.1 14-29 0.852-1.98 1.73-3.94 2.61-5.91 17.2-39 27.2-82.9 30.3-125 0.129-1.69 0.129-1.69 0.261-3.41 0.747-10.7 0.94-21.3 0.927-32-6.04e-4 -0.875-0.00121-1.75-0.00183-2.65-0.0813-43.6-6.79-86.5-20.2-128-0.483-1.5-0.483-1.5-0.977-3.04-4.79-14.7-10.6-28.9-17-43-0.394-0.879-0.788-1.76-1.19-2.66-10.5-23.4-23.9-45.5-38.8-66.3-0.579-0.824-1.16-1.65-1.75-2.5-7.98-11.2-16.7-22-26.1-32.1-1.21-1.33-2.41-2.66-3.58-4.03-5.13-6-10.6-11.6-16.2-17.2-1.63-1.64-3.26-3.28-4.88-4.92-6.53-6.56-13.3-12.5-20.5-18.3-1.03-0.863-2.05-1.73-3.07-2.61-17-14.5-35.8-26.8-54.9-38.4-1.22-0.766-1.22-0.766-2.47-1.55-6.85-4.25-14-7.82-21.3-11.3-2.33-1.14-4.64-2.3-6.96-3.46-44.8-22.2-93.7-34.8-143-39.7-1.46-0.146-1.46-0.146-2.94-0.294-12.3-1.06-24.7-0.948-37.1-0.956-1.2-0.00101-2.41-0.00201-3.65-0.00305-18 0.0102-35.5 0.538-53.3 3.25zm-23.6 235c-19.3 22.1-30.3 51.2-28.5 80.7 2.44 30.4 15.6 56.7 38.2 77 24.4 20.3 54 28.6 85.4 25.8 28.1-3.23 53.2-17.8 71.6-39.1 18.9-24.5 27.8-53.9 24.2-84.7-3.94-29.1-19.3-54.7-42.1-73-46.7-33.6-109-28.3-149 13.3zm-44.4 315c-0.587 0.394-1.17 0.787-1.78 1.19-18.9 12.7-36.4 28.7-50.2 46.8-0.418 0.542-0.836 1.08-1.27 1.64-32.9 42.9-47.6 92.7-48.8 146-0.0638 2.34-0.16 4.68-0.287 7.01-1.18 12.6-1.18 12.6 2.77 24 3.7 3.34 7.93 5.34 12.5 7.19 2.77 1.15 5.26 2.66 7.82 4.2 26 14.4 53 25.4 81.2 34.6 1.48 0.489 1.48 0.489 3 0.987 22.7 7.32 46.5 11.7 70.1 14.4 1.03 0.119 1.03 0.119 2.08 0.241 16 1.82 31.9 2.59 48 2.57 0.824-6.04e-4 1.65-0.00121 2.5-0.00183 61.6-0.122 123-13.5 178-40.2 0.664-0.316 1.33-0.632 2.01-0.958 8.99-4.31 17.8-9.02 26.6-13.7 1.02-0.547 2.05-1.09 3.1-1.66 0.978-0.529 1.96-1.06 2.96-1.6 0.867-0.468 1.73-0.935 2.63-1.42 0.905-0.539 1.81-1.08 2.74-1.63 0.615-0.313 1.23-0.626 1.86-0.949 2.89-1.67 4.79-2.88 5.76-6.17 0.238-2.68 0.24-5.27 0.164-7.95-0.00148-0.988-0.00295-1.98-0.00447-3-0.0162-3.21-0.0855-6.41-0.16-9.62-0.0289-2.2-0.0567-4.41-0.0833-6.61-0.528-34-5.96-66.4-19.5-97.7-0.314-0.726-0.628-1.45-0.952-2.2-7.76-17.7-17.8-33.9-30-48.8-0.688-0.84-0.688-0.84-1.39-1.7-10.4-12.7-21.6-24.3-34.6-34.3-1.43-1.12-1.43-1.12-2.89-2.27-7.07-5.44-14.4-10.2-22.1-14.7-0.668-0.393-1.34-0.787-2.02-1.19-27.6-16.2-58.1-26.6-90-29.8-0.977-0.111-1.95-0.222-2.96-0.336-51.5-5-104 8.17-147 37.3z" fill="#fff"/>
</svg>
