<?xml version="1.0" encoding="UTF-8"?>
<svg version="1.1" viewBox="0 0 1600 1600" width="auto" height="auto" xmlns="http://www.w3.org/2000/svg">
<path transform="translate(640 -.147)" d="m0 0c1.43-0.00331 2.86-0.00703 4.29-0.0111 3.91-0.00995 7.82-0.0137 11.7-0.0164 4.22-0.00392 8.45-0.0135 12.7-0.0222 10.2-0.0197 20.4-0.0298 30.6-0.0387 4.81-0.00439 9.62-0.00976 14.4-0.015 16-0.017 32-0.0315 48.1-0.0387 4.15-0.00191 8.3-0.00383 12.5-0.00579 1.03-4.84e-4 2.06-9.67e-4 3.13-0.00147 16.7-0.00829 33.4-0.0336 50-0.0661 17.2-0.0332 34.3-0.0511 51.5-0.0543 9.62-0.00216 19.2-0.0108 28.9-0.0365 8.2-0.0219 16.4-0.0297 24.6-0.02 4.17 0.0045 8.35 0.0029 12.5-0.0168 32.4-0.144 64.4 2.58 92.9 19.4 1.36 0.787 2.74 1.55 4.13 2.28 5.43 2.89 10.1 6.2 14.8 10.1 0.696 0.578 1.39 1.16 2.11 1.75 1.37 1.14 2.73 2.28 4.09 3.42 1.47 1.23 2.96 2.44 4.45 3.65 6.34 5.28 11.2 11.6 16.1 18.2 1.09 1.44 2.22 2.84 3.35 4.24 24.6 31.3 27.1 69.8 27 108-0.00534 2.39-0.0102 4.78-0.0145 7.16-0.0116 5.8-0.0293 11.6-0.0519 17.4 0.986-0.00184 1.97-0.00369 2.99-0.00559 24.1-0.0445 48.1-0.0773 72.2-0.098 11.6-0.0103 23.3-0.0243 34.9-0.0473 10.2-0.02 20.3-0.0329 30.5-0.0373 5.37-0.00259 10.7-0.00861 16.1-0.0233 5.07-0.0137 10.1-0.0177 15.2-0.0148 1.84-5.43e-4 3.69-0.00442 5.53-0.0122 9.65-0.0386 19.2 0.24 28.8 1.14 0.847 0.0786 1.69 0.157 2.57 0.238 8.28 0.847 16.2 2.63 24.2 4.86 1.01 0.275 2.01 0.549 3.05 0.832 22 6.67 40.6 19.2 56.9 35.2 0.701 0.639 1.4 1.28 2.12 1.94 25.6 23.9 38.1 60.6 39.8 94.8 0.836 25.8-5.22 50.8-17.9 73.2-0.506 0.934-0.506 0.934-1.02 1.89-10.3 19-26.4 36.8-45 48.1l-1.84 1.13c-27.9 16.9-27.9 16.9-40.2 16.9 1.56e-4 0.792 3.12e-4 1.58 4.73e-4 2.4 0.017 86.3 0.0327 173 0.0419 259 1.38e-4 1.29 2.76e-4 2.58 4.18e-4 3.91 0.00292 27.3 0.00564 54.7 0.00812 82 0.00125 13.7 0.00253 27.5 0.00385 41.2 1.99e-4 2.07 3.97e-4 4.14 5.95e-4 6.21 0.00306 31.9 0.00696 63.8 0.0133 95.6 1.37e-4 0.685 2.74e-4 1.37 4.15e-4 2.07 0.00221 11 0.0045 22.1 0.00679 33.1 0.0096 46.2 0.016 92.4 0.018 139 2.88e-4 6.44 6.14e-4 12.9 9.62e-4 19.3 6.74e-5 1.27 1.35e-4 2.53 2.04e-4 3.84 0.00118 20.4 0.00581 40.7 0.0118 61.1 0.0059 20.5 0.00813 41 0.00667 61.5-7.59e-4 12.2 0.00125 24.3 0.0073 36.5 0.00377 8.14 0.00385 16.3 0.00103 24.4-0.0015 4.63-0.00149 9.26 0.00305 13.9 0.0543 59.1-3.33 117-41.1 166-0.665 0.875-1.33 1.75-2.02 2.65-26 33.4-61.1 56.1-102 66.7-0.896 0.231-1.79 0.461-2.71 0.699-19 4.58-37.6 5.43-57.1 5.38-3.75-0.00679-7.49 4e-3 -11.2 0.0124-6.55 0.0123-13.1 0.0136-19.6 0.00745-9.73-0.00913-19.5-0.00103-29.2 0.0103-17.4 0.0196-34.8 0.022-52.2 0.0168-15.2-0.00456-30.4-0.00395-45.7 0.00184-2.05 7.57e-4 -4.09 0.00151-6.14 0.00227-3.08 0.00115-6.16 0.0023-9.25 0.00346-28.6 0.0107-57.3 0.0154-85.9 0.00753-1.08-2.97e-4 -2.16-5.94e-4 -3.27-9.01e-4 -8.76-0.00245-17.5-0.00506-26.3-0.00768-34.2-0.0101-68.3-0.00175-102 0.0215-38.4 0.0261-76.8 0.0389-115 0.0318-4.1-7.16e-4 -8.2-0.00139-12.3-0.00204-1.01-1.7e-4 -2.02-3.4e-4 -3.06-5.15e-4 -15.2-0.0023-30.4 0.00565-45.6 0.0188-17.3 0.0149-34.6 0.0157-51.9-0.00207-9.67-0.00953-19.3-0.00819-29 0.00923-6.47 0.0105-12.9 0.00631-19.4-0.00948-3.68-0.00857-7.36-0.0112-11 0.00427-49.8 0.195-99.7-13-137-47.9-1.32-1.33-2.62-2.68-3.92-4.03-1.67-1.78-1.67-1.78-4.16-3.63-3.61-2.96-6.45-6.42-9.44-10-0.641-0.748-0.641-0.748-1.29-1.51-43.4-50.8-47.9-113-47.8-177 0.0044-4.68 0.00284-9.37 0.00209-14-5.29e-4 -8.18 0.00261-16.4 0.00823-24.5 0.00834-12.2 0.0108-24.3 0.0121-36.5 0.00233-20.5 0.00916-40.9 0.0185-61.4 0.0126-27.9 0.0187-55.9 0.0229-83.8 0.00201-13 0.00433-26.1 0.00674-39.1 2.41e-4 -1.3 4.82e-4 -2.61 7.3e-4 -3.95 0.00568-30.3 0.0143-60.6 0.0236-90.9 6.28e-4 -2.05 0.00126-4.11 0.00188-6.16 0.00609-19.9 0.0123-39.9 0.0186-59.8 0.00694-22 0.0138-44.1 0.0205-66.1 6.27e-4 -2.06 0.00125-4.12 0.00188-6.17 0.00945-31 0.018-62 0.0237-93 2.41e-4 -1.3 4.82e-4 -2.6 7.3e-4 -3.94 0.00238-13 0.00461-26 0.00661-39 0.00432-27.9 0.0114-55.8 0.024-83.8 0.00917-20.3 0.0149-40.7 0.0171-61 0.00142-12.1 0.00569-24.2 0.0139-36.3 0.00524-8.06 0.00689-16.1 0.00557-24.2-6.44e-4 -4.6 3.41e-4 -9.2 0.0057-13.8 0.00484-4.18 0.00513-8.36 0.00169-12.5-4.24e-4 -1.51 8.57e-4 -3.02 0.00398-4.53 0.00399-2.04 0.00126-4.08-0.00184-6.12 3.8e-4 -1.13 7.59e-4 -2.26 0.00115-3.43-0.107-2.5-0.276-4.54-1.12-6.89-1.83-1.16-1.83-1.16-4.16-1.86-0.868-0.307-1.74-0.614-2.63-0.93-0.934-0.317-1.87-0.634-2.83-0.961-18.1-6.51-35.3-15.9-49.4-29.2v-2c-0.565-0.232-1.13-0.464-1.71-0.703-19.4-11-32.9-42.6-38.8-62.7-8.72-32.2-7.04-66 6.56-96.6 0.431-0.975 0.431-0.975 0.87-1.97 7.82-17.3 18.7-31.6 32.1-45 0.819-0.83 1.64-1.66 2.48-2.52 30.8-29.5 71-36.7 112-36.6 1.92 2.83e-4 3.85 1.23e-4 5.77-4.43e-4 5.18-2.85e-4 10.4 0.00556 15.5 0.0126 5.43 0.00629 10.9 0.00684 16.3 0.00803 10.3 0.0031 20.5 0.0113 30.8 0.0213 11.7 0.0112 23.4 0.0167 35.1 0.0217 24 0.0104 48.1 0.028 72.1 0.0503-0.00999-0.894-0.00999-0.894-0.0202-1.81-0.0677-6.35-0.112-12.7-0.145-19-0.0149-2.35-0.0351-4.7-0.0615-7.05-0.415-38 4.77-78 30.2-108 0.948-1.22 1.89-2.45 2.83-3.67 7.21-9.31 14.8-17.2 24.2-24.3 1.5-1.16 1.5-1.16 3.04-2.35 28.1-20.5 60.8-28.8 95.2-28.8zm-17.3 75c-0.713 0.0717-1.43 0.143-2.16 0.217-18.3 2.22-34.9 12.9-46.3 27-14.6 20.1-16 40.8-15.8 64.9 0.0633 5.55 0.103 11.1 0.145 16.6 0.00857 1.1 0.0171 2.2 0.026 3.34 0.021 2.7 0.0418 5.4 0.0626 8.1 50.6 0.763 101 1.15 152 1.14 6.34-0.00234 12.7-0.00255 19-0.00148 0.924 1.53e-4 1.85 3.06e-4 2.8 4.64e-4 1.88 3.2e-4 3.76 6.44e-4 5.64 9.73e-4 17.4 0.0028 34.7-3.53e-4 52.1-0.0058 14.7-0.00448 29.4-0.00367 44.2 9.19e-4 17.3 0.00541 34.7 0.00743 52 0.00439 1.87-3.18e-4 3.73-6.33e-4 5.6-9.43e-4 0.916-1.54e-4 1.83-3.09e-4 2.78-4.68e-4 6.3-8.45e-4 12.6 5.7e-4 18.9 0.00295 42.1 0.0146 84.2-0.226 126-1.14 0.00262-0.927 0.00262-0.927 0.0053-1.87 0.00803-2.83 0.0161-5.66 0.0242-8.49 0.00275-0.972 0.0055-1.94 0.00833-2.95 0.0143-4.99 0.0308-9.97 0.0522-15 0.463-20.5 0.463-20.5-3.28-40.5-0.221-0.71-0.441-1.42-0.669-2.15-6.07-18.7-19.4-33.3-36.7-42.4-20.1-9.93-43.6-8.02-65.4-7.98-4 0.00458-7.99-0.00249-12-0.00796-7.8-0.00883-15.6-7e-3 -23.4-0.00117-6.35 0.00454-12.7 0.00512-19 0.00295-0.908-3.06e-4 -1.82-6.13e-4 -2.75-9.29e-4 -1.84-6.4e-4 -3.69-0.00129-5.53-0.00195-17.2-0.00569-34.5 8.27e-4 -51.7 0.0116-14.8 0.00894-29.5 0.00738-44.3-0.00184-17.2-0.0107-34.4-0.0149-51.6-0.00878-1.84 6.37e-4 -3.67 0.00127-5.51 0.00189-0.904 3.09e-4 -1.81 6.17e-4 -2.74 9.35e-4 -6.33 0.00172-12.7-0.00117-19-0.00589-7.73-0.00564-15.5-0.00403-23.2 0.00656-3.93 0.00521-7.87 0.00739-11.8 7.02e-4 -19.3-0.101-19.3-0.101-38.5 1.11zm-359 201c-0.656 0.349-1.31 0.698-1.99 1.06-5.72 3.14-10.8 6.77-15.6 11.3-0.767 0.714-1.53 1.43-2.32 2.16-11 11.2-17.8 27.2-18.7 42.8-0.0793 0.99-0.0793 0.99-0.16 2-0.704 16.2 4.9 33.1 15.4 45.4 13 14.1 28.5 22.7 47.7 24.6 2.51 0.0857 5.02 0.126 7.53 0.126 0.718 0.00153 1.44 0.00305 2.18 0.00463 2.4 0.00389 4.8 6.89e-4 7.2-0.00249 1.75 0.00135 3.5 0.00313 5.25 0.00531 4.82 0.00473 9.63 0.00323 14.5 7.22e-4 5.24-0.00163 10.5 0.00251 15.7 0.00591 9.18 0.00516 18.4 0.00657 27.5 0.00554 13.7-0.00152 27.3 0.00263 41 0.00787 25.8 0.00968 51.6 0.0125 77.4 0.0131 2.85 6.47e-5 5.69 1.33e-4 8.54 2.03e-4 0.706 1.7e-5 1.41 3.4e-5 2.14 5.15e-5 15.6 4.08e-4 31.3 0.0026 46.9 0.0051 6.44 0.00103 12.9 0.00202 19.3 0.00302 1.07 1.66e-4 1.07 1.66e-4 2.16 3.35e-4 40.8 0.00632 81.6 0.0104 122 0.00999 1.53-1.58e-5 3.05-3.15e-5 4.58-4.72e-5 6.89-7.34e-5 13.8-1.62e-4 20.7-2.54e-4 3.07-4.11e-5 6.15-8.13e-5 9.22-1.21e-4 1.54-2.04e-5 3.08-4.14e-5 4.62-6.31e-5 48.7-6.8e-4 97.3 0.00664 146 0.0205 12.3 0.0035 24.5 0.00697 36.8 0.0103 0.755 2.03e-4 1.51 4.06e-4 2.29 6.15e-4 23.3 0.00622 46.5 0.00998 69.8 0.0112 0.73 4e-5 1.46 7.99e-5 2.21 1.21e-4 16 8.53e-4 32.1 0.00111 48.1 8.3e-4 5.74-9.65e-5 11.5-1.49e-4 17.2-1.79e-4 1.43-7.91e-6 2.85-1.81e-5 4.28-3.06e-5 22.7-1.76e-4 45.5 0.00552 68.2 0.0142 23.5 0.00889 47.1 0.0105 70.6 0.00369 13.6-0.0037 27.1-0.00185 40.7 0.00794 9.06 0.00599 18.1 0.00472 27.2-0.00247 5.17-0.00389 10.3-0.00462 15.5 0.00346 4.7 0.00729 9.41 0.00533 14.1-0.00392 1.69-0.00172 3.38-1.08e-4 5.06 0.0053 24.5 0.0734 43.2-4.71 61.1-22.3 0.638-0.614 1.28-1.23 1.93-1.86 11.8-12.3 16.5-30.2 16.3-46.8-0.988-16.3-7.2-31.2-18.2-43.4-0.53-0.61-1.06-1.22-1.61-1.85-11.6-12.5-28.7-19-45.4-20.2-5.66-0.147-11.3-0.138-17-0.131-1.74-0.00165-3.49-0.00374-5.23-0.00622-4.8-0.00556-9.61-0.0049-14.4-0.00322-5.22 7.32e-4 -10.4-0.00429-15.7-0.00858-10.4-0.00758-20.7-0.00977-31.1-0.0103-12.4-9.14e-4 -24.8-0.00758-37.2-0.0143-29.3-0.0157-58.6-0.0217-87.8-0.0264-14.9-0.00238-29.8-0.00609-44.7-0.01-47.8-0.0127-95.6-0.0234-143-0.0268-2.28-1.62e-4 -4.57-3.28e-4 -6.85-4.94e-4 -4.58-3.34e-4 -9.16-6.64e-4 -13.7-9.95e-4 -5.36-3.87e-4 -10.7-7.77e-4 -16.1-0.00117-1.53-1.12e-4 -3.07-2.24e-4 -4.6-3.34e-4 -49.3-0.00355-98.6-0.0186-148-0.0419-35.4-0.0167-70.8-0.0322-106-0.0367-0.729-9.35e-5 -1.46-1.87e-4 -2.21-2.83e-4 -16-0.00202-32-0.00318-48-0.00353-5.72-1.36e-4 -11.4-3.45e-4 -17.2-5.93e-4 -1.42-6.16e-5 -2.85-1.2e-4 -4.27-1.75e-4 -22.7-9.19e-4 -45.4-0.0109-68-0.0255-23.5-0.015-47-0.0192-70.5-0.0109-13.5 0.00446-27.1 5.9e-4 -40.6-0.0152-9.04-0.00975-18.1-0.00857-27.1 0.00144-5.15 0.00539-10.3 0.0061-15.5-0.00651-4.69-0.0114-9.39-0.00876-14.1 0.00467-1.68 0.00242-3.36-9.62e-5 -5.04-0.0084-13.6-0.0629-28.8 0.244-41 7.07zm67.4 203c-0.0619 153-0.124 305-0.188 462-0.0273 48.2-0.0546 96.5-0.0828 146-0.01 43.2-0.01 43.2-0.0161 86.3-0.00298 20.5-0.0159 41-0.0337 61.6-0.0179 20.9-0.0245 41.9-0.0203 62.8 0.00215 12.4-0.00378 24.9-0.0221 37.3-0.0113 8.23-0.0116 16.5-0.00308 24.7 0.00452 4.68 0.00443 9.35-0.00914 14-0.124 45.6 4.88 84.1 37.4 119 0.53 0.571 1.06 1.14 1.61 1.73 1.09 1.14 2.23 2.21 3.39 3.27h2v2c21.5 18.3 48.8 25.2 76.4 25.1 1.22 0.00175 2.45 0.00351 3.71 0.00531 3.39 0.00384 6.77 0.00324 10.2 7.22e-4 3.69-0.00164 7.38 0.00251 11.1 0.00591 6.46 0.00515 12.9 0.00657 19.4 0.00554 9.61-0.00153 19.2 0.00264 28.8 0.00787 18.2 0.00967 36.3 0.0125 54.5 0.0131 14 4.6e-4 28 0.00252 42.1 0.0057 4.04 8.98e-4 8.07 0.00179 12.1 0.00267 1.51 3.32e-4 1.51 3.32e-4 3.04 6.7e-4 28.2 0.00615 56.5 0.0101 84.7 0.00966 1.06-1.56e-5 2.13-3.12e-5 3.23-4.72e-5 5.39-8.31e-5 10.8-1.82e-4 16.2-2.85e-4 1.61-2.99e-5 1.61-2.99e-5 3.25-6.04e-5 2.17-4.04e-5 4.33-8.22e-5 6.5-1.25e-4 33.7-6.13e-4 67.4 0.00689 101 0.0206 37.9 0.0154 75.7 0.024 114 0.023 4.04-7.46e-5 8.08-1.23e-4 12.1-1.54e-4 0.995-1.17e-5 1.99-2.33e-5 3.01-3.53e-5 16-3.08e-5 32 0.00635 48 0.015 16.1 0.00848 32.2 0.00946 48.2 0.00289 9.55-0.00369 19.1-0.00188 28.6 0.00794 6.39 0.00601 12.8 0.00469 19.2-0.00247 3.63-0.00387 7.27-0.00469 10.9 0.00346 26.7 0.369 26.7 0.369 52.5-5.26 0.871-0.301 1.74-0.601 2.64-0.911 13.7-4.95 26.2-12.2 36.9-22.1 0.972-0.88 1.94-1.76 2.95-2.67 18.8-17.5 29.6-40.7 35.3-65.5 0.163-0.691 0.327-1.38 0.495-2.1 2.57-11.8 2.4-23.9 2.38-35.9 7.41e-4 -1.6 0.00192-3.2 0.0035-4.8 0.00305-4.38-9.07e-5 -8.75-0.00428-13.1-0.00344-4.76-0.00106-9.51 5.83e-4 -14.3 0.00208-8.34 4.35e-4 -16.7-0.00363-25-0.00611-12.6-0.00637-25.1-0.00553-37.7 0.00124-21-0.00205-42.1-0.0081-63.1-0.00817-28.5-0.0101-56.9-0.011-85.4-0.00525-68.4-0.0192-137-0.0321-205-0.0206-153-0.0412-306-0.0625-463h-937z" fill="#000002"/>
<path transform="translate(1046 590)" d="m0 0c7.77 7.55 11.7 17.7 12.1 28.4 0.0372 3.1 0.0416 6.19 0.0359 9.29 0.00175 1.2 0.00351 2.39 0.00531 3.63 0.00386 3.33 0.00323 6.66 7.22e-4 9.99-0.00163 3.62 0.00251 7.24 0.00591 10.9 0.00516 6.34 0.00657 12.7 0.00554 19-0.00152 9.43 0.00263 18.9 0.00787 28.3 0.00968 17.8 0.0125 35.7 0.0131 53.5 4.59e-4 13.8 0.00252 27.5 0.0057 41.3 8.98e-4 3.96 0.00179 7.92 0.00267 11.9 3.32e-4 1.48 3.32e-4 1.48 6.7e-4 2.98 0.00616 27.7 0.0101 55.4 0.00966 83.1-2.34e-5 1.57-2.34e-5 1.57-4.72e-5 3.17-8.31e-5 5.3-1.82e-4 10.6-2.85e-4 15.9-1.99e-5 1.05-3.99e-5 2.1-6.04e-5 3.19-4.04e-5 2.13-8.22e-5 4.26-1.25e-4 6.38-6.13e-4 33.1 0.00689 66.2 0.0206 99.3 0.0154 37.2 0.024 74.4 0.023 112-7.46e-5 3.96-1.23e-4 7.93-1.54e-4 11.9-1.17e-5 0.976-2.33e-5 1.95-3.53e-5 2.96-3.08e-5 15.7 0.00636 31.4 0.015 47.1 0.00848 15.8 0.00947 31.6 0.00289 47.4-0.0037 9.38-0.00186 18.8 0.00794 28.1 6e-3 6.27 0.0047 12.5-0.00247 18.8-0.00388 3.57-0.00466 7.14 0.00346 10.7 0.00868 3.85 0.00177 7.7-0.00656 11.6 0.00497 1.1 0.00994 2.2 0.0151 3.33-0.0638 14-1.72 27.5-11.5 38.2-8.22 7.43-18.3 10.4-29.2 9.94-10.7-1.11-18.3-4.87-25.6-12.9-11.5-14.3-9.44-34.2-9.39-51.4 0.00767-3.61-0.00219-7.23-0.00973-10.8-0.0108-6.32-0.0105-12.6-0.00286-19 0.0114-9.4 0.00553-18.8-0.00362-28.2-0.0158-16.8-0.0144-33.6-0.00576-50.4 0.00755-14.7 0.00951-29.4 0.00593-44.1-2.29e-4 -0.976-4.58e-4 -1.95-6.94e-4 -2.96-9.34e-4 -3.96-0.00189-7.92-0.00288-11.9-0.00917-37.1-8.63e-4 -74.3 0.0153-111 0.0142-33 0.013-66-0.00138-98.9-0.0161-37.1-0.0224-74.1-0.0132-111 9.62e-4 -3.95 0.0019-7.91 0.00283-11.9 2.37e-4 -0.973 4.74e-4 -1.95 7.19e-4 -2.95 0.00341-14.7-5.73e-4 -29.4-0.00816-44.1-0.00858-16.7-0.00642-33.4 0.00984-50.1 0.0088-9.34 0.0094-18.7-0.00194-28-0.00674-6.25-0.00251-12.5 0.0105-18.7 0.00711-3.55 0.00962-7.11-0.00122-10.7-0.107-38-0.107-38 10.4-50.3 15.1-15 36.8-15.4 53-1.98z" fill="#000002"/>
<path transform="translate(823 588)" d="m0 0c7.51 6.19 12.5 14.8 13.6 24.5 0.639 7.27 0.866 14.5 0.85 21.8 0.00145 1.18 0.00291 2.37 0.0044 3.59 3e-3 3.27 0.00158 6.53-0.00178 9.8-0.00255 3.56 7.28e-4 7.12 0.00324 10.7 0.0036 6.24 0.00351 12.5 9.53e-4 18.7-0.00379 9.27-0.00185 18.5 0.00121 27.8 0.00526 16.6 0.00481 33.1 0.00192 49.7-0.00252 14.5-0.00317 29-0.00198 43.5 7.64e-5 0.962 1.53e-4 1.92 2.31e-4 2.92 3.11e-4 3.91 6.3e-4 7.81 9.6e-4 11.7 0.00306 36.6 2.86e-4 73.3-0.0051 110-0.00474 32.5-0.00432 65.1 4.61e-4 97.6 0.00536 36.6 0.00748 73.1 0.00439 110-3.21e-4 3.9-6.34e-4 7.8-9.43e-4 11.7-7.91e-5 0.96-1.58e-4 1.92-2.4e-4 2.91-0.00114 14.5 1.91e-4 29 0.00272 43.5 0.00286 16.5 0.00214 33-0.00328 49.4-0.00293 9.22-0.00313 18.4 6.46e-4 27.7 0.00225 6.16 8.39e-4 12.3-0.0035 18.5-0.00237 3.51-0.00321 7.02 4.06e-4 10.5 0.0364 45.2 0.0364 45.2-12.1 57.9-8.62 7.89-17.4 9.97-29 10-9.45-0.628-17.4-4.85-23.8-11.8-12.7-15.9-10.5-36.2-10.5-55.5 0.0042-3.59-0.00325-7.18-0.00915-10.8-0.00873-6.28-0.0101-12.6-0.0065-18.9 0.00532-9.34-8.04e-4 -18.7-0.00908-28-0.0152-17.7-0.0169-35.3-0.0145-53 0.00183-13.6 7.01e-5 -27.3-0.00422-40.9-6.02e-4 -1.96-0.0012-3.92-0.0018-5.88-9.07e-4 -2.96-0.00182-5.91-0.00273-8.87-0.00843-27.5-0.0128-54.9-0.00859-82.4 1.56e-4 -1.03 3.13e-4 -2.07 4.74e-4 -3.14 8.06e-4 -5.25 0.00165-10.5 0.00251-15.7 1.71e-4 -1.04 3.42e-4 -2.08 5.18e-4 -3.16 3.47e-4 -2.11 6.95e-4 -4.21 0.00105-6.32 0.00536-32.8-0.00258-65.6-0.021-98.4-0.0207-36.9-0.0314-73.7-0.0274-111 3.95e-4 -3.93 7.57e-4 -7.86 0.0011-11.8 9.07e-5 -0.968 1.81e-4 -1.94 2.75e-4 -2.93 0.00117-14.6-0.00548-29.2-0.0161-43.8-0.0121-16.6-0.0136-33.2-0.00121-49.8 0.00662-9.29 0.00501-18.6-0.00859-27.9-0.00826-6.21-0.00553-12.4 0.00598-18.6 0.00624-3.53 0.00789-7.07-0.00386-10.6-0.104-39.2-0.104-39.2 10.4-51.3 14.3-14.1 34.4-15.4 50.7-3.94z" fill="#000002"/>
<path transform="translate(602 588)" d="m0 0c8.03 6.66 12.5 15.3 13.5 25.7 0.105 3.2 0.119 6.39 0.0994 9.59 0.00436 1.22 0.00872 2.45 0.0132 3.71 0.00904 3.39 0.00472 6.77-0.00533 10.2-0.00763 3.69 0.00218 7.38 0.00973 11.1 0.0108 6.46 0.0105 12.9 0.00286 19.4-0.0114 9.61-0.00554 19.2 0.00362 28.8 0.0158 17.2 0.0144 34.3 0.00576 51.5-0.00755 15-0.00952 30-0.00593 45.1 2.29e-4 0.996 4.58e-4 1.99 6.94e-4 3.02 9.34e-4 4.04 0.00189 8.09 0.00288 12.1 0.00918 37.9 8.55e-4 75.9-0.0153 114-0.0142 33.7-0.013 67.4 0.00138 101 0.0161 37.9 0.0224 75.7 0.0132 114-9.62e-4 4.04-0.0019 8.07-0.00283 12.1-2.37e-4 0.994-4.74e-4 1.99-7.19e-4 3.01-0.00341 15 5.79e-4 30 0.00816 45 0.00857 17.1 0.00644 34.1-0.00984 51.2-0.00881 9.55-0.00938 19.1 0.00194 28.7 0.00672 6.38 0.00255 12.8-0.0105 19.1-0.00714 3.64-0.00957 7.27 0.00122 10.9 0.0115 3.92-2.09e-4 7.83-0.0142 11.8 0.00702 1.13 0.014 2.25 0.0213 3.41-0.0818 11.5-2.84 20.3-10.4 29-8.67 8.41-18.1 11-30 11-9.87-0.673-17.6-5.19-24.4-12.3-12.5-15.2-9.92-36.5-9.88-55 0.00511-3.59-0.00146-7.19-0.00649-10.8-0.0072-6.29-0.00702-12.6-0.00191-18.9 0.00759-9.35 0.00369-18.7-0.00242-28.1-0.0105-16.7-0.00962-33.4-0.00384-50.1 0.00503-14.6 0.00634-29.2 0.00395-43.9-1.53e-4 -0.97-3.06e-4 -1.94-4.63e-4 -2.94-6.23e-4 -3.94-0.00126-7.88-0.00192-11.8-0.00612-36.9-5.76e-4 -73.9 0.0102-111 0.00949-32.8 0.00864-65.6-9.22e-4 -98.4-0.0107-36.9-0.015-73.7-0.00878-111 6.41e-4 -3.93 0.00127-7.86 0.00189-11.8 1.58e-4 -0.968 3.16e-4 -1.94 4.79e-4 -2.93 0.00227-14.6-3.83e-4 -29.2-0.00544-43.8-0.00572-16.6-0.00429-33.2 0.00656-49.8 0.00587-9.29 0.00626-18.6-0.00129-27.9-0.00449-6.21-0.00168-12.4 0.00701-18.6 0.00475-3.54 0.0064-7.07-8.12e-4 -10.6-0.00609-3.82 1.64e-4 -7.63 0.00944-11.4-0.00468-1.09-0.00936-2.18-0.0142-3.3 0.0713-14.7 2.05-27.5 12.4-38.5 13.8-12.9 33.8-12.2 48.6-1.56z" fill="#000002"/>
</svg>
