<svg width="41" height="34" viewBox="0 0 41 34" fill="none" xmlns="http://www.w3.org/2000/svg">
<path d="M15.6114 16.5726C17.0577 14.168 19.3026 13.6723 20.2443 13.725C21.1031 13.6291 22.4478 14.1996 23.1258 14.6215C24.1427 15.0434 25.5364 17.1175 26.1202 18.1546C26.7078 19.1671 28.06 20.4748 28.6627 21.0022C30.5158 22.3099 31.6195 24.3243 31.9396 25.168C32.8436 27.9945 31.3746 30.0722 30.5271 30.7577C29.126 32.4874 26.139 32.0409 24.8207 31.6014C22.3348 30.8843 20.8846 30.7401 20.4703 30.7577C19.1143 30.6733 17.005 31.285 16.1199 31.6014C13.6339 32.403 11.5434 31.7245 10.8089 31.285C8.09698 29.8507 8.28531 26.9258 8.71846 25.6426C9.41317 23.5847 11.1856 21.5295 12.4474 20.633C13.6226 19.6627 15.0464 17.5218 15.6114 16.5726Z" stroke="#E3E7F4" stroke-width="2.5"/>
<path d="M17.5097 5.79199C17.8544 7.0678 17.7575 8.27686 17.3796 9.18788C17.0021 10.0978 16.3826 10.645 15.6842 10.8196C14.9858 10.9942 14.1677 10.8065 13.3774 10.1886C12.5862 9.5699 11.8897 8.55921 11.5451 7.28339C11.2004 6.00758 11.2972 4.79852 11.6752 3.8875C12.0527 2.97759 12.6722 2.43041 13.3706 2.25578C14.069 2.08115 14.8871 2.26887 15.6773 2.8868C16.4685 3.50548 17.165 4.51617 17.5097 5.79199Z" stroke="#E3E7F4" stroke-width="2.5"/>
<path d="M28.8652 7.32434C28.5106 8.59774 27.8061 9.60344 27.0101 10.2164C26.215 10.8286 25.3956 11.0103 24.6987 10.8307C24.0019 10.6511 23.3867 10.0996 23.0163 9.1869C22.6455 8.27313 22.5581 7.06331 22.9128 5.78991C23.2675 4.51651 23.9719 3.5108 24.768 2.89784C25.5631 2.2856 26.3825 2.1039 27.0793 2.28353C27.7761 2.46315 28.3913 3.01467 28.7617 3.92734C29.1325 4.84111 29.2199 6.05093 28.8652 7.32434Z" stroke="#E3E7F4" stroke-width="2.5"/>
<path d="M7.95166 12.3721C8.76917 13.1585 9.22847 14.0716 9.35509 14.8701C9.48182 15.6694 9.27282 16.2621 8.90014 16.6206C8.52746 16.9792 7.9114 17.1803 7.08059 17.0583C6.25053 16.9365 5.30147 16.4946 4.48395 15.7082C3.66644 14.9217 3.20715 14.0086 3.08053 13.2101C2.95379 12.4108 3.1628 11.8181 3.53548 11.4596C3.90816 11.101 4.52422 10.9 5.35502 11.0219C6.18509 11.1437 7.13415 11.5856 7.95166 12.3721Z" stroke="#E3E7F4" stroke-width="2.5"/>
<path d="M35.8635 15.7248C35.046 16.5113 34.0969 16.9532 33.2669 17.075C32.4361 17.1969 31.82 16.9959 31.4473 16.6373C31.0746 16.2788 30.8656 15.6861 30.9924 14.8868C31.119 14.0883 31.5783 13.1752 32.3958 12.3887C33.2133 11.6022 34.1624 11.1604 34.9924 11.0386C35.8232 10.9166 36.4393 11.1177 36.812 11.4763C37.1847 11.8348 37.3937 12.4275 37.2669 13.2267C37.1403 14.0253 36.681 14.9384 35.8635 15.7248Z" stroke="#E3E7F4" stroke-width="2.5"/>
</svg>
