<svg width="33" height="34" viewBox="0 0 33 34" fill="none" xmlns="http://www.w3.org/2000/svg">
<path d="M2 15.27V27.2C2 28.8802 2 29.7202 2.32698 30.362C2.6146 30.9265 3.07354 31.3854 3.63803 31.673C4.27976 32 5.11984 32 6.8 32H8.46667C9.58677 32 10.1468 32 10.5746 31.782C10.951 31.5903 11.2569 31.2843 11.4487 30.908C11.6667 30.4802 11.6667 29.9201 11.6667 28.8V22.8923C11.6667 21.7722 11.6667 21.2121 11.8847 20.7843C12.0764 20.408 12.3824 20.102 12.7587 19.9103C13.1865 19.6923 13.7466 19.6923 14.8667 19.6923H18.1333C19.2534 19.6923 19.8135 19.6923 20.2413 19.9103C20.6176 20.102 20.9236 20.408 21.1153 20.7843C21.3333 21.2121 21.3333 21.7722 21.3333 22.8923V28.8C21.3333 29.9201 21.3333 30.4802 21.5513 30.908C21.7431 31.2843 22.049 31.5903 22.4254 31.782C22.8532 32 23.4132 32 24.5333 32H26.2C27.8802 32 28.7202 32 29.362 31.673C29.9265 31.3854 30.3854 30.9265 30.673 30.362C31 29.7202 31 28.8802 31 27.2V15.27C31 14.1807 31 13.636 30.8655 13.1304C30.7462 12.6825 30.5501 12.2586 30.2857 11.8779C29.9873 11.4481 29.5721 11.0957 28.7416 10.3907L28.7416 10.3907L20.6416 3.51539C19.1704 2.26667 18.4349 1.64232 17.6113 1.40413C16.8853 1.19418 16.1147 1.19418 15.3887 1.40413C14.5651 1.64232 13.8296 2.26667 12.3584 3.51539L4.25843 10.3907C3.42793 11.0957 3.01268 11.4481 2.71431 11.8779C2.44994 12.2586 2.25376 12.6825 2.13454 13.1304C2 13.636 2 14.1807 2 15.27Z" fill="white" stroke="#E3E7F4" stroke-width="2.5"/>
</svg>
